<?xml version="1.0" encoding="utf-8"?>
<!-- Generator: Adobe Illustrator 18.0.0, SVG Export Plug-In . SVG Version: 6.00 Build 0)  -->
<!DOCTYPE svg PUBLIC "-//W3C//DTD SVG 1.1//EN" "http://www.w3.org/Graphics/SVG/1.1/DTD/svg11.dtd">
<svg version="1.1" id="Layer_1" xmlns="http://www.w3.org/2000/svg" xmlns:xlink="http://www.w3.org/1999/xlink" x="0px" y="0px"
	 viewBox="0 0 201.6 194.4" enable-background="new 0 0 201.6 194.4" xml:space="preserve">
<g>
	<path fill="#231f20" d="M107.7,177.3c0.3-0.1,0.6-0.3,1.3-0.6c-0.2,1.3-0.3,2.4-0.4,3.4c1.4-1.4,1-2.9,0.1-4.6
		C108.3,176,108,176.7,107.7,177.3z"/>
	<path fill="#231f20" d="M6.9,98.5c-0.5-1.4-1.4-2.3-3-2.5c0,2.7,0.9,4,3.5,5.3c-0.8-1.4-2.8-2.2-2.6-4.6
		C5.6,97.4,6.3,97.9,6.9,98.5z"/>
	<path fill="#231f20" d="M0.8,116.6C0.8,116.6,0.9,116.5,0.8,116.6L0.8,116.6c0-0.1,0-0.1,0-0.1C0.8,116.5,0.8,116.5,0.8,116.6
		C0.8,116.6,0.8,116.6,0.8,116.6z"/>
	<path fill="#231f20" d="M1.6,119.1c-0.3-0.8-0.5-1.7-0.8-2.5C0.4,117.6,0.5,118.4,1.6,119.1z"/>
	<path fill="#231f20" d="M12.1,82c0-0.1,0-0.1,0-0.2C12.1,81.9,12.1,81.9,12.1,82L12.1,82z"/>
	<path fill="#231f20" d="M80.4,19.7C80.4,19.7,80.4,19.7,80.4,19.7C80.4,19.7,80.4,19.7,80.4,19.7C80.4,19.7,80.4,19.7,80.4,19.7
		L80.4,19.7C80.3,19.7,80.3,19.7,80.4,19.7C80.4,19.7,80.4,19.7,80.4,19.7L80.4,19.7z"/>
	<path fill="#231f20" d="M201.5,90c-2.5-0.7-3.3,1.6-5,2.6c0.1-1.2,0.2-2.1,0.4-3c0.6-3.4,1.3-6.8,3.8-9.5c0.6-0.6,0.6-1.6-0.6-2
		c-1.3,1.8-2.5,3.6-3.8,5.4c-0.7-0.6-1.4-1.1-2.1-1.7c0.2,3,2.5,5.6,1.1,8.6c-1,0-1.9,0.1-2.7,0.1c0.1-1.6,1.5-2.9,0.6-4.6
		c-0.6,0.2-1.2,0.3-1.7,0.4c-0.1-1.1,0.1-2.2-0.3-3.2c-0.8-2.1,0-3.6,1.5-5c-0.4,0.1-0.9,0.3-1.4,0.4c0.6-2.9,1.8-4.2,4.7-4.6
		c0.1,0.5,0.2,1,0.3,1.5c0.9-0.7,1-1.5,0.2-2.5c-1,0-2,0-3.4,0c0.6-0.4,0.8-0.7,1.1-0.7c1.5-0.4,3.1-0.8,4.7-1.2
		c1.7-0.5,1.8-0.9,1.2-2.6c-0.2-0.5,0-1.1,0-1.7c-0.1-0.6,0-1.3-0.4-1.7c-0.3-0.3-1.1-0.2-1.6-0.1c-0.6,0.2-1.1,0.6-1.6,0.9
		c-0.4-0.6-0.6-1-1-1.5c-1.7,1.1-2,2.6-1.8,4.1c0.3,1.5-0.2,2.5-1,3.6c-0.7,0.9-1,2-1.5,3c-0.3,0.5-0.6,1-0.9,1.4
		c-0.2-0.1-0.4-0.1-0.5-0.2c0-2.7,0-5.4,0-8.1c0,0,0,0,0,0c0.6-1.8,1.3-3.6,1.7-5.4c0.1-0.6-0.7-1.3-1.4-2.3c0.2-0.7,0.5-2,0.8-3.3
		c0.4-2.2-0.3-2.7-2.9-1.9c0.4-1.5,0.9-2.8,1.1-4.2c0.1-0.9-0.3-1.8-0.5-2.6c-0.8,0.2-1.6,0.4-2.3,0.5c-0.1,0-0.3-0.1-0.4-0.1
		c0-7.3,0-7.3-3.3-8.4c-0.1-1.3-0.1-2.6-0.3-3.9c-0.3-2-1.1-2.5-3.4-2.4c-0.2-0.9-0.5-1.8-0.7-2.7c-0.7-2.4-1.2-2.8-3.8-2.6
		c-0.6-1.6-1.1-3.2-1.9-4.7c-0.5-1-1.5-1.6-2.6-1.3c-1.4,0.4-1,1.6-0.8,2.7c0,0.2,0.2,0.3,0.4,0.4c0.3-0.7,0.6-1.3,1-2
		c1.6,1.5,1.9,2.3,2.4,5.2c-1.2-1.1-2.3-2.2-3.4-3.3c0.5,1.3,1,2.6,1.5,4c-0.6,0.3-1.3,0.8-2,1.2c0.4,2.2,2,3.3,3.7,4.4
		c-0.9,2.5,0.4,3.9,2.3,5.2c0.7,0.5,1.7,1.4,1.7,2.1c-0.1,1.7,0.9,2.6,1.7,3.8c0.9,1.4,2,2.7,3,4c-0.4,0.9-0.7,1.7-1.1,2.7
		c-3.9-6-7.3-12.2-12.5-17.1c-0.6-0.6-1-2-0.8-2.8c0.7-2.4-0.1-4.7-0.3-7c0-0.7-0.4-1.6-0.9-1.9c-0.4-0.2-1.3,0.2-2,0.4
		c-1.4-2.5,0.1-5.9-2.9-8.3c-0.8,1-1.4,1.8-2.1,2.8c-0.8-2-1.4-3.8-2.2-5.6c-0.8-1.8-1.8-2-3.1-1c-0.3,0.3-0.5,0.6-0.7,0.9
		c-1.7-0.9-2.8-2.7-5-2.4c-0.1,1.6,0.2,2.8,1.7,3.3c1.2,1.6,2.5,3.1,3.5,4.4c-0.1,0.7-0.5,1.6-0.2,1.9c0.9,1,1.8,2.2,3,2.5
		c4,1.2,6.2,4.2,8,7.6c0.3,0.5,0.4,1,0.6,1.6c-4.2-3.1-8.2-6.2-13-8c-1.3-0.5-1.8-1.5-2.4-2.6c-0.7-1.4-1.5-2.8-2.4-4.2
		c-0.6-0.9-1.5-1.4-2.6-1.4c-0.2,0.6-0.4,1-0.5,1.5c-1.4-1.5-1-4.3-3.8-4.8c-0.3,0.8-0.5,1.4-0.8,2.1c-1.7-2-1.5-5.3-4.9-6.4
		c-0.3,0.6-0.7,1.3-1.2,2.1c-1.3-2.1-0.9-5-3.9-5.2c-0.3-0.3-0.5-0.5-0.8-0.8c-0.3,0.9-0.6,1.8-1,2.8c-0.9-1.7-1.4-3-2.2-4.2
		c-0.2-0.4-1-0.9-1.3-0.8c-0.5,0.2-1.1,0.8-1.3,1.3c-0.2,0.6,0,1.3,0,1.9c0,0.6,0.1,1.2,0.1,2.3c-2.3-2-2.8-4.9-5.4-6
		c-0.5,0.6-0.9,1.2-1.5,1.8c-1.2-1-2.4-2.1-3.8-0.5c-1.8-0.8-2.1-3.6-4.9-3.2c0.4,2.3,1.3,4.1,2.7,5.7c-0.6,0.4-1.1,0.8-1.6,1.2
		c1.5,2.5,2.8,3,4.9,2.3c3-1.1,4.6-0.6,6.5,1.8c0.3,0.4,0.9,0.7,1.4,0.7c0.7,0.1,1.6,0,2.3-0.2c1.9-0.8,3.6-0.1,5.2,0.7
		c1,0.5,2.1,0.9,3.1,1.5c2.5,1.5,4.9,3,7.3,4.5c-4.7-0.9-9.2-2.2-13.7-3.2c-4.4-1-9.2-1-13.1-3.6c-0.1-0.1-0.2-0.1-0.3-0.1
		c-1.9,0.1-3.4-1.1-5-1.9c-0.4,0.2-0.9,0.6-1,0.5c-1.7-1.1-3.5-2.2-4.5-4.4c0.9,0.2,1.8,0.5,2.7,0.7c-1.9-2.1-2.3-2.1-4.2-0.8
		c0.7,1.1,1.4,2.1,2.2,3.4c-1.8-0.1-2.4-1.3-3-2.4c-0.9-1.5-1.7-3.1-2.7-4.7C95,0.8,94-0.3,92.2,0.1c0,0.4-0.1,0.8,0,1.2
		c0,0.2,0.3,0.5,0.4,0.7c0.5,2,1.1,3.9,1.8,6.6c-1.6-1.1-2.7-1.9-3.9-2.7c0,0,0-0.1,0-0.1c-0.1,0-0.1-0.1-0.2-0.1
		c-1.4-2.9-3.3-4.4-5.9-4.1c0.3,0.7,0.6,1.3,0.8,1.9c0,0,0,0.1,0,0.1c0,0,0.1,0.1,0.1,0.1c0.5,1.1,1,2.3,1.5,3.5
		C85,7.1,85,7.1,83.3,5.9c0,0.4-0.1,0.9-0.1,1.3c-3.2-1-4.5-2.5-4.3-5.1c1.2,1.1,2.3,2,3.4,3c-1.3-1.3-1.5-3.5-3.7-4
		c-2.1,2.2,0.2,3.7,1,5.6c-1.5-0.9-2.7-1.6-4-2.3c-0.1,0.1-0.2,0.2-0.2,0.3l0,0c0.1-0.1,0.2-0.2,0.2-0.3c-1.1-0.8-2.2-1.8-3.4-2.5
		c-0.5-0.3-1.4,0.1-2.1,0.2c0.2,0.6,0.5,1.1,0.7,1.7c0,0,0,0.1,0,0.1c0,0,0.1,0.1,0.1,0.1c0.5,1.6,1.7,2.6,3.2,3.2
		c0,0,0.1,0.1,0.1,0.1c0,0,0,0,0,0c-0.1,1-1,0.9-1.7,1.1c-1.5,0.5-3.3,0.4-5,2c3.4-0.6,6.3-1.2,9.5-1.8c-0.4,0.9-0.7,1.4-0.9,1.9
		c0.8,1.2,2.1,1.3,3.3,1.4c1.9,0.1,2.6-1.6,3.7-2.8c1.1,3.5,1.9,3.5,6.3,0.7c1.7,1.9,3.9,2.2,5.7,0.6c1.2-1.1,2.3-1.2,3.6-0.9
		c3.3,0.8,6.5,1.7,9.8,2.5c0,0.2,0,0.4-0.1,0.6c-3.8,0-7.5-0.1-11.3,0c-4.5,0.1-9,0.2-13.4,0.5c-3.4,0.3-6.8,1-10.2,1.6
		c-2.1,0.4-4.2,0.8-6.1,1.7c-4.1,1.8-8.1,3.9-12.1,5.8c-5.7,2.6-10,7-13.7,11.8c-4.6,6-8.5,12.5-13.2,18.5c-4.7,6.1-7,13.2-9.3,20.3
		c-1.8,5.4-2.5,11.2-3.7,16.9c-0.1,0.6-0.4,1.2-0.7,2.5c-1-5.7-0.3-10.6,0.5-15.5c0.7-4.8,2.3-9.5,3.4-14.3
		c1.3-5.6,3.9-10.6,7.2-15.4c1-1.4,2.2-2.6,3.8-3.3c0.8-0.3,1.5-0.8,2.3-1.1c1.6-0.8,2.1-2,1.6-3.6c2.2-1.4,5.7-1.5,5-5.5
		c1.6-1.6,4.4-2.4,4.6-5.7c-1.2,0.2-2,0.4-2.9,0.5c1.4-2.1,3.9-2.9,5.1-5.8c-2.2,1.8-3.8,3.2-5.8,4.8c0.4-2.8,2.6-4.6,1.7-7.4
		c-2.5,1.4-2.5,3.9-3.1,5.9c-0.5,1.6-0.9,3.3-1.4,4.9c-0.1,0.5-0.3,0.9-0.5,1.7c2.2-1,3.1-3.5,6-3.3c-2.6,2.7-5.2,4.6-8.7,6.1
		c0.8-2.6,2.5-4.7,1.5-7.6c-0.5,0.6-1,0.9-1.2,1.4c-0.6,1.8-1.1,3.6-1.5,5.4c-0.4,1.7-0.8,3.2-2.8,4.4c0.3-1.3,0.6-2.2,0.7-3.1
		c0.3-1.6,0.5-3.2,0.6-4.8c0-0.2-0.6-0.5-0.9-0.8c-0.1,0.2-0.2,0.5-0.3,0.7c0.5,1.9,0.6,3.7-0.5,5.6c-1-2.1,0.6-3.8,0.5-5.6
		c-2,2-2.4,4.7-2,7.1c0.4,2.7-0.6,4.6-1.8,6.6c-1.1,1.8-2.3,3.4-3.6,5.3c-0.3-2.8-0.1-5.4-0.9-7.7c-0.8-2.4-0.8-4.5-0.3-6.8
		c0.2-1.2,0.4-2.5,0.2-3.6c-0.1-0.6-1-1.4-1.7-1.6c-0.4-0.1-1.3,0.6-1.7,1.2c-0.4,0.7-0.5,1.6-0.6,2.4c-0.1,1.7,0,3.5,0,5.2
		c-1.2,0.1-2.4,0.2-4,0.3c1.2,1.6,1.9,3.3,3.1,4.1c1.3,0.9,3.2,0.9,5.2,1.4c-0.2,1.9-0.1,4-0.6,5.9c-0.9,3.4-2.2,6.6-3.3,10
		c-1.8,5.8-3.2,11.7-3.9,17.7c-0.1,0.5-0.5,0.9-0.8,1.4c0.4-1,0.7-2.1-0.6-3.3c-1,1.8-1.9,3.4-3,5.3c-0.4-2.3,0.8-3.9,1.2-5.6
		c-0.3,0.1-0.5,0.2-1.1,0.3c0-1.2-0.4-2.1,0.7-3.2c1.1-1,1.7-2.6,2.8-4.3c0.8,2.2-0.9,3.2-0.9,4.7c0.7-1,1.4-2,2-3
		c0.5-0.8,0.5-1.8-0.5-2.1c-0.5-0.2-1.4,0.4-1.8,0.8c-0.8,0.8-1.4,1.9-2.1,2.8c-0.2-0.1-0.4-0.2-0.6-0.3c0.8-1.4,1.5-2.9,2.3-4.3
		c-0.4,0.2-0.9,0.3-1.8,0.6c0.2-1,0.3-1.7,0.6-2.3c1.3-2.4,2.8-4.7,4.2-7.1c0.6,0.1,1.1,0.2,0.8,1.1c-0.5,1.4-0.9,2.9-1.4,4.3
		c2-2.4,2.8-4.8,2.2-7.2c-0.6,0.7-1.1,1.3-1.6,1.8c-0.8,0.8-1.6,1.7-2.5,2.5c-0.4,0.4-0.8,0.8-1.2,1.2c0-1.5,0.4-2.8,0.6-4
		c0.2-1.3,0.2-2.7,0.2-4c-0.2,0-0.3,0-0.5-0.1c-0.7,2.6-1.4,5.2-2.1,7.9c-0.6-1.2-1.1-2.3-1.5-3.3c0,0,0,0,0,0
		c-0.1-0.9-0.5-1.6-1.9-1.6c-0.7,2.3-0.1,4.6,1.1,6.4C8.7,66.2,8.2,69,8,72c-1.4-1.3-1.7-3.3-3.8-4.2c-0.1,2,0.5,3.6,1.6,4.6
		c1.8,1.7,2,3.8,2.2,5.9c0.1,1.5,0,2.9,0,4.4c-2.9-0.8-3.3-3.3-3.8-6.3c-0.3,0.9-0.6,1.3-0.5,1.5c0.6,1.5,0.9,3.3,1.9,4.4
		c2.9,3,3,6.5,3.3,10.2C6.1,92,5.3,90.2,4.9,88c-0.3,0.8-0.5,1.6-0.2,2.1c0.6,1.2,1.4,2.3,2.2,3.2c2,2.3,2.5,5,3.4,8.1
		c-0.8-0.3-1-0.4-1.3-0.5c-0.3-0.1-0.7-0.3-1-0.4c-0.2,0.3-0.4,0.6-0.6,0.9c0,0-0.1,0-0.1-0.1c0,0,0.1,0.1,0.1,0.1l0-0.1
		c3.2,2.3,4.6,5.6,5,9.4c-0.5-0.1-0.8-0.3-1.2-0.4c0,0.8,1.2,1.5,0.2,2.3c-0.8-1.4-3.2-1.6-3.3-3.8c0.6,0,1.1,0.1,1.6,0.1
		c-0.5-1-1.4-1.1-2.1-0.5c-0.3,0.3-0.3,1.7,0.1,2c1.1,0.9,2.4,1.5,3.6,2.3c0,0,0,0,0,0c0.3,0.3,0.6,0.9,0.9,0.8
		c1.1-0.1,1.3,0.6,1.4,1.4c1.4,8.6,5,16.4,8.7,24.2c0.7,1.5,1.6,3,2.4,4.4c-0.6,1.1-1.1,1.9-1.6,2.8c-1.3-2.3-0.6-5.2-2.9-7.3
		c-0.6,0.9-1.2,1.7-1.8,2.5c-0.4-2.3-0.7-4.6-1.2-6.8c-0.3-1.3-0.6-2.8-2.6-1.6c-0.2,0.1-0.9-0.5-1.3-0.7c0.1,0.6,0.2,1.2,0.3,1.8
		c-1.2-1-2.4-1.7-1.8-3.6c0.3-1-0.3-2.3-0.6-3.5c0.2-0.1,0.4-0.1,0.6-0.2c0.4,1,0.8,2,1.3,2.9c0-4,0-4-1.8-5.1
		c-0.4,0.9-0.8,1.8-1.5,3.2c-0.6-3.6,0.3-6.7-1.2-9.8c-0.8,0.3-1.4,0.6-2.5,1c0-1.7,0.1-3.2,0-4.7c-0.1-0.8-0.7-2.2-1-2.1
		c-2.4,0.3-2.2-1.8-3.1-2.9c-0.4-0.5-0.9-1-1.5-1.7c-1.6,2.5,0,4.3,0.4,6.2c-1.4,1.4-1.4,1.4-0.3,2.4c0-0.1,0-0.1,0-0.2
		c0-0.1,0.2-0.1,0.2-0.1c1.4,1.1,3.9,5.1,4.3,7.1c-1-0.9-1.9-1.6-2.9-2.5c0.3,2.2,0.2,4.4,2.2,5.8c-0.2-0.7-0.3-1.4-0.5-2.1
		c1.6,1.7,3.9,2.7,4.8,5.6c-1.5-0.9-2.5-1.6-3.5-2.2c0.9,0.8,1.5,1.6,0.8,2.8c-0.5,0.8-0.1,1.5,0.6,2c0.8,1.1,1.5,2.3,2.3,3.4
		c-0.8,2.3-0.7,3.1,1.3,4.4c1.4,1,3.1,1.7,4.6,2.5c0.5,1.2,1,2.5,1.4,3.7c0.1-0.3,0.1-0.7,0.2-1.3c2.6,0.9,4.2,2.5,5.5,4.7
		c-1.6-0.8-3.1-1.5-4.7-2.3c0.9,0.8,1.7,1.7,2.6,2.6c-0.5,0.3-1,0.5-1.6,0.9c0.6,0.7,1,1.2,1.5,1.8c-0.1-0.4-0.2-0.9-0.3-1.6
		c3.4,1.6,6.8,2.7,9.1,5.6c-1.9-0.6-3.9-1.2-5.8-1.7c1.1,0.7,2.2,1.4,3.3,2.1c-0.4,0.4-0.9,1-1.5,1.6c1.2,1.6,2.8,2.4,4.6,2.7
		c-1.2-0.8-2.4-1.6-3.5-2.4c0.1-0.2,0.1-0.3,0.2-0.5c0.9,0,1.8-0.1,2.7-0.1l-0.1,0.1c1.7-1.2,1.7-1.2,3,0.6c0.1,0.2,0.1,0.4-0.1,0.5
		c1.3,0.8,2.7,1.6,4.2,2.5c-2.2,0.9-3.9-0.2-5.8-0.3c1.8,1.4,4,2,6.1,1.7c1.7-0.2,2.4,0.5,3.1,1.5c-1.7,0.8-3.3-1.6-5.4,0.3
		c0.8,0.4,1.5,0.8,2.2,1.1c0-0.3,0.1-0.5,0.1-0.8c2.1,0.3,4.1,0.5,6.2,0.9c0.8,0.1,1.4,0.7,2,1.6c-1.2,0-2.4,0-3.7,0
		c0.2,0.3,0.4,0.6,0.7,0.9c-0.4,0.5-0.9,1-1.5,1.7c0.8,0.4,1.4,0.8,2,0.9c3,0.3,6.1,0.4,9.1,0.6c1,0.1,2.1,0,3.1,0.3
		c6.5,2.3,12.7,5.7,19.6,7.1c0.4,0.1,0.6,0.7,1.2,1.5c0.3,0,1.1,0.1,2,0.2c1.7,4.7,4.7,2.4,7.5,1.3c-0.5,0.9-1.2,1.5-1.6,2.3
		l1.6,1.7c0.8-0.3,1.5-0.8,2.2-1.2c1.8,3.3,3.3,0.5,4.9-0.1c0.7,0.2,1.5,0.4,2.1,0.6c0.4,0.7,0.8,1.4,1.5,2.8
		c0.9-1.3,1.5-2.1,2.1-2.9c1.3,0.1,2.6,0.3,3.8,0.3c1.3,0,2.6-0.1,3.6-0.2c-0.5,0.6-1.1,1.3-1.6,2c0.6-0.2,1.2-0.4,1.9-0.7
		c-0.5,2.3-0.5,2.3-3,2.3c0.4-0.6,0.7-1.1,1.1-1.7c-1.5,0.2-2.2,1.1-2.6,2.5c2,1,3.4-0.4,5-1.2c1,3.4,1,3.4,2.5,4.6c0.5-1,1-2,1.5-3
		c1.1,0.1,2.4,0.4,2.7-1.2c0.3-1.5-0.8-2-1.9-2.4c-0.3-0.1-0.7-0.2-1.1-0.3c0,0,0,0,0,0c-0.2-0.2-0.4-0.3-0.6-0.5
		c6.8-1.2,10.8-0.9,13.6,1.6c-2.8-0.6-4.9-1.1-7.1-1.5c1.8,1.2,5.2,2.2,6.7,2.1c0.5,0,1.2,0,1.3-0.3c0.9-1.6,2.2-0.9,3.5-0.6
		c0.9,0.2,1.9,0.3,3,0.4c0.1-1.5,0.9-2.1,2.2-1.7c-0.7-0.3-1.3-0.6-2-0.8c-1-0.4-1.9-0.8-3-1.2c2.5-1.6,4.5-1.2,7.1,1.5
		c-0.8,0.2-1.5,0.3-2.2,0.5c1.3,0.7,2.5,0.7,4.2-0.9c-1.2-0.7-2.2-1.4-3.3-2.1c1.6-0.4,2.9-0.5,4.2-0.4c1.7,0.1,3.1-0.3,3.1-2.1
		c1.7-0.4,3.7-0.3,4.5-1.3c1.2-1.4,2.4-1.4,3.8-1.7c1.9-0.4,2.2-0.8,2.4-2.7c5.7-1.7,5.7-1.7,6.4-3.4c-0.9-0.3-1.8-0.7-2.8-1.1
		c1.3-1.5,2.8-1.9,4.5-2c1.1-0.1,2.2-0.3,3.3-0.5c-1.2-0.1-2.4-0.2-4.1-0.3c2.6-1.8,4.9-2.1,7.4-1.9c0.1,0.2,0.1,0.4,0.2,0.6
		c-1.2,0.6-2.4,1.2-3.5,1.7c1.4-0.3,2.8-0.6,4.1-1c0.4-0.1,0.6-0.9,1.1-1.7c-1.8-0.2-3.1-0.4-4.7-0.6c2.8-1.9,7-0.3,8.9-4
		c-0.9-0.4-1.4-0.7-2.3-1.1c2-0.7,3.9-1.2,5.6-1.9c0.8-0.3,1.3-1.3,1.9-1.9c-0.6-0.5-1.2-1-1.8-1.5c-0.1-0.1,0-0.3,0-0.5
		c0.5-0.2,1.1-0.3,1.6-0.5c1.4-0.7,2.9-1.4,4.2-2.3c0.5-0.4,0.6-1.4,0.8-2.1c-0.7,0-1.4-0.2-2.1-0.1c-0.9,0.2-1.7,0.7-2.8,1.1
		c1-2.1,2.3-3.3,3.9-4.2c1-0.5,2.1-1,3-1.6c0.5-0.3,1.1-0.7,1.1-1.1c0.1-0.5-0.4-1-0.8-1.8c1.5-0.5,2.9-1.1,4.2-1.6
		c1.9,2,3.3,4.2,6.3,5.2c0.3-1.7,0.5-3.1,0.7-4.5c1.1-0.3,2.2-0.7,3.5-1.1c-0.2-0.7-0.2-1.5-0.6-1.7c-1-0.5-2.1-0.7-3.1-1.1
		c0.1-0.3,0.3-0.6,0.3-1c0-0.8,0-1.6-0.1-2.3c-0.8,0.2-1.7,0.2-2.3,0.7c-1.3,1.2-2.5,2.6-3.7,3.9c-0.4,0.5-0.9,1-1.4,1.2
		c-1.4,0.5-2.8,0.9-4.8,1.4c1.8-2.6,3.3-4.8,4.8-7c-0.2,0.1-0.5,0.2-0.7,0.2c0.2-1,0.2-2.2,0.8-3c0.6-0.8,1.3-2.2,3.1-1.4
		c-0.8,1.1-1.5,2.1-2.3,3.2c3.1-1.5,3.6-2.7,2.3-5.4c-0.4,0.1-0.7,0.1-1.1,0.2c-0.3,0.1-0.5,0.2-0.8,0.3c0.1-2,0.2-2.2,3.4-4.1
		c-0.5,1.2-1,2.4-1.5,3.5c1.8-1.4,3.2-3,3-5.5c-0.9,0.3-1.8,0.6-2.7,0.8c0.1-2.4,0.8-3,4.8-4.1c0,0.5,0,0.9,0,1.4
		c0.8-0.5,1.6-1,0.8-2.5c-1.4,0.3-2.8,0.7-4.6,1.1c1.2-1.7,2.2-3,3.2-4.3c-0.7,0.5-1.5,1.1-2.2,1.6c-0.1-2.4,0.7-3.4,3.8-5.1
		c0,0.5,0,0.9,0.1,1.3c0.8-0.6,1.8-1.5,1.1-2.2c-1-1.1-0.2-1.6,0.3-2.3c0.8-1.2,1.9-2.3,1.5-4.2c-0.9,0.1-1.7,0.1-2.5,0.2
		c0.2-0.6,0.3-1.1,0.4-1.6c0,0,0,0-0.1,0c0.9-1.2,2-2.4,2.6-3.8c0.3-0.6-0.5-1.6-0.8-2.4C200.1,93.8,202.2,92.5,201.5,90z
		 M199.5,69.9c-0.6,0.2-1.2,0.4-1.7,0.6c-0.1-0.2-0.1-0.5-0.2-0.7c0.6-0.2,1.2-0.3,1.8-0.5C199.4,69.5,199.5,69.7,199.5,69.9z
		 M198.5,65.9c0.2,0.2,0.4,0.4,0.6,0.6c-0.8,0.7-1.5,1.5-2.3,2.2C196.7,67.1,197.4,66.4,198.5,65.9z M151.8,17.1
		c-0.9-0.8-1.8-1.5-2.7-2.2c-0.2-0.6-0.4-1.2-0.7-2.3c2.1,0.9,3.2,2.3,4.4,3.7C152.5,16.5,152.2,16.8,151.8,17.1z M108.4,2.9
		c0.1-0.1,0.2-0.2,0.3-0.2c0.4,0.5,0.7,1,1.1,1.5c-0.1,0.1-0.2,0.2-0.4,0.3C109.2,3.9,108.8,3.4,108.4,2.9z M109.2,7.4
		c1,0.2,2,0.4,3.3,0.7C110.9,9.4,110,8.7,109.2,7.4z M114.8,6.9c-0.7-0.7-1.3-1.5-2-2.2c0.2-0.2,0.4-0.3,0.6-0.5
		c0.6,0.8,1.3,1.5,1.9,2.3C115.1,6.6,115,6.7,114.8,6.9z M117.5,3.8c0.9,1.4,1.9,2.7,3,4.4C117.8,6.8,117.3,6.2,117.5,3.8z
		 M122.2,10.8c-0.7,0-1.3,0-2,0c0-0.1,0-0.2,0-0.3c0.7,0,1.3,0,2,0C122.2,10.5,122.2,10.7,122.2,10.8z M123,3.5c2,1.9,2.1,4,2.6,6
		C123.7,8.1,122.3,6.5,123,3.5z M128.1,8.8c-0.3-0.4,0.2-1.3,0.5-2.3c2.1,1.7,2.1,3.8,2.5,5.8C129.5,11.7,129,10.1,128.1,8.8z
		 M134.5,10.2c1,1.9,1.9,3.6,2.9,5.5C134.1,15.1,133,13,134.5,10.2z M77.5,10.4c1-2.1,2.6-1.8,4.2-1.8
		C80.8,11.5,80.1,11.8,77.5,10.4z M86.2,10.9c-0.4,0.1-1.2-0.2-1.4-0.5c-0.2-0.4,0-1.2,0.3-1.4C86,8.4,87,7.6,88.4,8.6
		C88.2,10,87.4,10.7,86.2,10.9z M92.2,10.3c-1,0.1-1.5-0.5-1.5-1.9c1.4,0.3,2.6,0.5,3.8,0.7C94.1,10.7,93,10.3,92.2,10.3z M92.6,1.9
		c0.3-1,1-1.3,1.6-0.5c1.5,2.1,3,4.2,3.9,7.3C94.6,7.2,93.8,4.4,92.6,1.9z M36.5,35.4c-1.1,1.7-1.1,1.7-4.1,2.4
		C33.2,36,35.2,36.3,36.5,35.4z M32,41.1c-1.1,0.7-2.1,1.5-3.2,2.2C29.3,41.7,30.2,40.8,32,41.1z M20.2,43.2c-0.8,0-1.6,0-2.4,0
		c0-0.1,0-0.3,0-0.4c0.8,0,1.6,0,2.4,0C20.2,42.9,20.2,43.1,20.2,43.2z M19.3,38.7c-1.7-0.7-1.3-2.3-1.4-3.6c-0.1-1.4-0.4-3,1.2-4
		C21,32.8,21,33.7,19.3,38.7z M6.3,58.4c0.5,0.1,0.9,0.2,1.2,0.3c0.1,1.3,0.2,2.6,0.4,4.5C6.5,61.5,6.8,59.9,6.3,58.4z M0.8,109.4
		c1.7,1.9,2.5,3.7,2.4,5.9C1.9,113.6,0.7,111.9,0.8,109.4z M5.3,113.5c0.8,2.3,0.5,4.2,0.6,6.6C4.8,118.2,4.6,116.2,5.3,113.5z
		 M17.4,140.4c-0.2,0-0.4,0.1-0.6,0.1c-0.5-2.1-1-4.2-1.5-6.3C17,135.7,17,135.8,17.4,140.4z M8.6,126.7c-1.3-2.1-0.5-4.4-0.7-6.6
		c0.2,0,0.4-0.1,0.6-0.1c0.2,1.1,0.6,2.2,0.7,3.3c0.1,1.1,0,2.2,0,3.3C9,126.5,8.8,126.6,8.6,126.7z M8.8,134.5
		c-0.7-0.6-1.3-1.2-1.9-1.8c0.1-0.5,0.1-0.9,0.2-1.7c0.7,0.2,1.5,0.3,2,0.6c2.2,1.7,3.9,3.7,4.4,6.7C11.9,137,10.4,135.8,8.8,134.5z
		 M15,143C15,143,15.1,143,15,143c-1-0.8-2-1.6-3-2.3c-1-0.7-2.2-1.3-2.2-3c1.9,0.1,2.9,1.8,4.3,2.4c1.6,0.7,2.9,1.7,3.6,3.8
		C16.7,143.6,15.9,143.3,15,143z M20.5,141.5c1.2,1.7,1.5,3.7,2,6C20.3,145.8,20.5,143.6,20.5,141.5z M110.6,189
		c0.3,0.4,0.3,1,0.5,1.9c-2.1-0.6-2.1-2-2.3-3.2C109.5,188.1,110.2,188.4,110.6,189z M193.2,144c-1.1-0.9-2-1.7-3.2-2.8
		C193.1,141.1,193.6,141.5,193.2,144z M196.6,138.3c0,0.2,0.1,0.5,0.1,0.7c-1,0.2-2,0.3-3,0.5c0-0.3,0-0.6-0.1-0.9
		C194.6,138.5,195.6,138.4,196.6,138.3z M193.7,134.3c0.4,2.5-1,4-3.6,4.2C190.5,136.6,192,135.5,193.7,134.3z M200.2,90.8
		c0,2.2-1.2,4.3-4.2,7.5C196.6,94.9,197.9,92.8,200.2,90.8z M193.6,91.5c1.9,2.1,1.4,4,1.4,6.3C193.3,95.8,193.4,94,193.6,91.5z
		 M192.4,88.1c-0.4,1.1-0.9,2.1-1.4,3.5C190.6,89.2,190.6,89.2,192.4,88.1z M191.8,92.9c0.2,0.1,0.4,0.1,0.6,0.2
		c-0.4,1-0.7,2.1-1.1,3.1c-0.2-0.1-0.4-0.2-0.6-0.3C191.1,94.9,191.4,93.9,191.8,92.9z M189.8,64.1c-0.2,1.7-0.3,3-0.4,4.2
		C188.1,67.1,188.5,65.8,189.8,64.1z M189.1,56.1c1,2.7-0.2,4.6-1,6.8C186.5,60.3,188,58.5,189.1,56.1z M187.6,49.4
		c0.6,2.8-0.4,4.9-1.2,7C184.8,53.9,185.4,51.7,187.6,49.4z M186.7,66.1c-1.3-2.7-2.6-5.4-4.2-8.7C186.1,59.7,187,62.6,186.7,66.1z
		 M183.7,42.3c1.7,2.6,0.7,4.9,0.6,7.5c-1.3-1.1-2-2.4-2-3.6C182.3,45,183.1,43.9,183.7,42.3z M185.5,58c-2.5-1.5-4-2.9-4-5.7
		C183.8,53.5,184.6,55.4,185.5,58z M180,35.5c1.7,2.5,1.2,5.1,1.2,8C179,40.9,178.6,38.5,180,35.5z M175.8,30.7
		c1.5,1.7,1.5,3.9,2.2,6.5C175.4,35.2,175.6,32.9,175.8,30.7z M170.1,31.5c2.5,0,3.2,1.7,4.5,3.8C172.1,34.5,170.6,33.7,170.1,31.5z
		 M173.1,37.4c2.5-0.2,4.5,1.8,5.4,5.4C176.6,41.2,174.1,40.1,173.1,37.4z M178,45c2.7,0.8,3.8,2.9,4.1,5.6
		C180.7,48.7,179.3,46.9,178,45z M157.3,20.6c-2.1-2.1-3-4.4-3.3-7.2C155.8,14.7,156.8,17,157.3,20.6z M154.1,21.3
		c1.9,0.1,3.4,0.5,4.4,2.5C156.3,23.7,155.3,22.3,154.1,21.3z M159.8,23.6c0.2-1.9,0.4-3.5,0.5-5.1c0.2,0,0.5,0,0.7,0
		c0.4,2.6,0.8,5.2,1.4,8.4C161.3,25.4,160.5,24.4,159.8,23.6z M163.3,29c0.7-0.7,1.3-1.3,1.9-1.8c0.3,1.5,0.5,3,0.8,4.6
		c-0.2,0.1-0.3,0.2-0.5,0.3C164.7,31,164,29.9,163.3,29z M173.8,46.9c3.9,6.1,8.1,11.9,11,18.6c2.8,6.7,3.9,13.8,5.4,20.8
		c-0.3,0.1-0.5,0.2-0.8,0.4c-0.4-0.8-0.8-1.6-1.1-2.4c-1.4-4.2-2.6-8.5-4.2-12.6c-1.2-3.2-2.9-6.2-4.5-9.2c-1.9-3.8-3.7-7.7-6-11.2
		c-3.3-4.9-7.1-9.6-10.6-14.4c-1.3-1.7-2.7-3.4-4.3-5.3C162.5,32.9,169.4,39.9,173.8,46.9z M187.6,100c-0.2-0.7-0.4-1.5-0.6-2.2
		c0.2-0.1,0.4-0.1,0.5-0.2c0.5,0.9,0.9,1.8,1.4,2.8c-0.1,0.1-0.3,0.2-0.4,0.3C188.3,100.5,188,100.3,187.6,100z M187.4,87.9
		c1.8,0.9,1.8,0.9,1.2,2.7C188.3,89.8,188,89.1,187.4,87.9z M183.4,78.3c-1.4,0.2-2.5,0.1-3.7-1.3C181.4,76.8,182.6,76.7,183.4,78.3
		z M180.6,69.6c2.3,1.5,1.7,3.9,2.6,5.7C181.3,74,180.1,72.4,180.6,69.6z M172.7,52.7c-1.4-0.8-2.3-1.3-3.6-2
		C171.6,50.6,171.6,50.6,172.7,52.7z M166.6,43.2c-3.4-2-4.4-3.1-4.8-5.9C163.3,39.1,164.8,40.9,166.6,43.2z M160.5,39
		c-1.8-1.9-4.5-3.2-4.5-6.8C159.1,33.8,159.7,36.5,160.5,39z M142,27.4c1.8,1,1.8,1,2.3,3.6C141.9,31,141.1,29.7,142,27.4z
		 M141.8,32.5c-2.1,0.8-4.2,1.6-6.2,2.5c-0.1-0.3-0.2-0.5-0.3-0.8c2-1.1,3.8-2.4,6.2-2.3C141.6,32.1,141.7,32.3,141.8,32.5z
		 M148.6,34.4c-1.8,1.7-3.6,2.3-6.9,1.8C143.2,34.2,145.8,33.5,148.6,34.4z M148.2,29.3c2.3,1.4,3.8,3.4,5.1,5.4
		C151.2,33.4,148.4,32.7,148.2,29.3z M156.6,38.4c-2.8,1.8-4.2,1.5-5.6-1.4C153,37.5,154.7,38,156.6,38.4z M145,18.1
		c0.8,1.2,1.6,2.4,2.3,3.7c-0.2,0.1-0.4,0.2-0.6,0.3c-1.4-0.9-1.9-2.3-2.3-3.7C144.7,18.3,144.9,18.2,145,18.1z M140.3,14.9
		c0.4,0.8,0.8,1.7,1.2,2.5c-0.2,0.1-0.4,0.2-0.6,0.3c-0.4-0.9-0.7-1.7-1.1-2.6C140,15.1,140.1,15,140.3,14.9z M24,64.5
		c0.8,2.1,0.9,4-1.5,5.6C22.1,68.3,22.4,67.4,24,64.5z M21.3,71c0.2,0,0.4,0.1,0.6,0.1c-0.4,1.4-0.7,2.8-1.1,4.3
		C19.9,73.6,20.6,72.3,21.3,71z M12.1,78.9c0,1,0,2,0,2.9c0.3-0.6,0.6-1.3,0.8-1.9c0.1,2.3,0.2,4.6,0.3,6.9c-1.1,0.5-2,0.9-2.8,1.2
		C8.8,84.7,10.7,81.9,12.1,78.9z M11.3,88.2c1.3,1.6,0.4,2.9,0.7,4.1c0.3-0.4,0.5-0.8,1.1-1.5c0.3,1.5,0.5,2.6,0.7,4.1
		c-1.1-0.5-2.7,0.4-2-1.6c-0.4,0.3-0.7,0.6-1.2,0.9C9.5,92.1,10.9,90.5,11.3,88.2z M11.2,100.1c0.1-1.3,0.4-2.6,0.9-3.9
		c1.1,1.5,0,3,0,4.5C11.8,100.5,11.2,100.3,11.2,100.1z M14.4,113.2c-0.7-2.6-1.5-5.1-2-7.7c-0.3-1.5-0.1-3.2-0.2-4.7c0,0,0,0,0,0
		c0.5-1.1,1.1-2.3,1.7-3.7c1.2,3.9,0.7,7.9,1.2,11.7c0.5,3.9,0.9,7.8,1.1,11.8C15.6,118.1,15,115.6,14.4,113.2z M25.3,145.1
		c0.9,3,1.6,5.5,2.4,8.3C24.4,151.1,23.9,149.5,25.3,145.1z M28.3,152.8c-0.6-2.1-1.2-4.3-1.9-6.4c0.2-0.1,0.3-0.1,0.5-0.2
		c1.1,1.3,2.2,2.5,3.1,3.6C29.4,150.9,28.8,151.9,28.3,152.8z M30,152.2c1.6,1.7,2,3.9,2.4,6.1C30.9,156.6,29.8,154.7,30,152.2z
		 M33.4,157.7c-0.6-1.7-1.2-3.2-1.7-4.8c0.2-0.1,0.3-0.2,0.5-0.3c0.9,1,1.9,2,2.8,3.1C34.5,156.3,34.1,156.9,33.4,157.7z
		 M35.8,157.3c0.6,1.5,1.1,2.9,1.8,4.7C35.3,160.2,34.9,159.3,35.8,157.3z M38.4,161.2c-0.5-1.2-0.9-2.2-1.6-3.8
		C39.5,158.9,39.5,158.9,38.4,161.2z M40.4,160.3c1,1.9,1.8,3.4,2.6,4.9C40.2,163.9,39.7,163,40.4,160.3z M41.7,170.3
		c3.1,0.2,6.1-1.2,8.9,1.1C47.2,172.6,43.4,172.2,41.7,170.3z M43.3,162c2,1.9,3.9,3.8,5.9,5.6c1,0.9,2.2,1.4,3.3,2.2
		c0.9,0.6,1.7,1.2,2.7,1.9C48.5,169.5,43.3,167.2,43.3,162z M67.1,176.3c-4.2-2.3-8.3-4.7-12.6-6.8c-2.5-1.2-4.2-3.2-6.2-4.9
		c-3.2-2.7-6.4-5.4-9.7-8c-6.8-5.4-11.8-12.1-15.6-19.7c-3.3-6.6-5.1-13.8-5.7-21.2c0-0.3,0.1-0.5,0.3-1.3
		c10.5,26.9,28.5,47.1,52,62.9C68.7,177,67.8,176.7,67.1,176.3z M31.2,129.1c0.1-0.8,0.2-1.5,0.4-2.3c0.1,0,0.3,0,0.4,0
		c0.1,0.2,0.2,0.3,0.2,0.5c-0.2,0.7-0.4,1.3-0.6,2C31.4,129.1,31.3,129.1,31.2,129.1z M32.2,135.3c0.1-1.1,0.2-2.3,0.3-3.4
		c0.2,0,0.4,0,0.6,0c-0.1,0.5-0.1,1-0.2,1.6c-0.1,0.6-0.1,1.3-0.2,1.9C32.5,135.3,32.4,135.3,32.2,135.3z M49.9,158.2
		c0-2,0.3-3.9,0.8-5.9c1.9,2.4,0.9,5,0.5,7.8C50.7,159.5,49.9,158.8,49.9,158.2z M53.8,158.4c0.4,1.5,0.8,2.9,1.2,4.5
		C53,162.5,52.9,162.1,53.8,158.4z M70.9,169.1c1.9,2.2,2.1,4.4,2.5,7.1C70.8,174.2,71,171.9,70.9,169.1z M78.3,182.1
		c1.3-0.7,2.2,0.1,3.4,0.4C79.8,183.8,79.8,183.8,78.3,182.1z M79,173.8c2.3,1.6,3.4,3.5,3.8,6.3C80.9,178.5,78.5,177.1,79,173.8z
		 M85.7,180.7c-2.3-3-2.3-3.6-0.6-5.2C86.1,177.1,86.5,178.6,85.7,180.7z M89,181.5c-1-1.5-1.8-2.7-1-4.3
		C90,178.1,90.2,178.7,89,181.5z M95.1,181.8c-0.5-0.7-1.1-1.4-1.5-2.1c-0.2-0.4-0.2-1.1-0.1-1.6c0-0.2,0.4-0.3,1.1-0.8
		c0.5,1.7,0.9,2.9,1.2,4.2C95.6,181.6,95.3,181.7,95.1,181.8z M99.8,183.5c-1.7-0.3-3.1-1.1-3.5-3.1c-0.3-1.3-0.9-2.6-1.4-3.8
		c-2.8,1-3.1,1.5-2.1,3.5c0.4,0.8,0.8,1.5,1.5,2.6c-1.2,0.1-2.2,0.3-3.7,0.4c0-1.6,0.1-2.9,0-4.1c-0.2-2.4-1.1-3-3.7-2.6
		c-0.4-0.6-0.8-1.2-1.4-2c-1,0.6-2,1.1-3,1.7c-1-1.1-2.1-2.3-3.2-3.6c-1.9,2.3-1.9,2.3,1.2,7.3c-3.6,0-5.4-1.4-6.2-4.6
		c-0.4-1.6-0.7-3.1-1.2-4.7c-0.4-1.6-1.2-2.8-3-2.6c-0.6-3.7-0.9-4-3-3.5c-0.4-0.6-0.9-1.2-1.3-1.8c0,0.5,0,0.9,0,1.4
		c0.1,0.4,0.2,0.9,0.4,1.6c-2.1-0.6-1.2-2.2-1.6-3.3c-0.4-1.1-0.5-2.3-0.5-3.6c0.6,1.3,1.2,2.6,1.7,4c-0.4-2.1,0.4-4.4-1.3-6.2
		c-1.8,0-1.5,1.5-2,2.5c-1.5-2-1.4-4.9-4.3-5.9c-1.2,1.4-0.2,2.5,0.5,3.7c0.1-0.5,0.1-1.1,0.3-1.9c1.7,1.9,2.1,4.1,3.2,6.1
		c-0.2,0.1-0.3,0.2-0.5,0.3c-0.6-0.8-1.2-1.7-1.7-2.5c-0.4-0.7-0.9-1.3-1.3-2c0.3,1,0.5,2,1,2.9c0.6,1.3,1.1,2.7,1.4,4.2
		c0.5,2.4,2.3,4.3,4.2,6c2.1,1.9,4.1,3.9,5.8,6.3c-1.6-0.9-3.3-1.6-4.9-2.6c-2.6-1.6-5-3.4-7.5-5.2c-1.6-1.1-2.4-2.6-2.6-4.5
		c-0.2-1.2-0.4-2.4-0.7-3.6c-0.2-0.8-0.2-2-0.8-2.4c-2.1-1.2-1.8-3.1-2.1-4.9c-0.3-1.4-1-2.2-2.7-1.5c0.2-1.4,0.6-2.8,0.4-4
		c-0.2-1.6-1.6-1.9-3-1.9c-0.3-1.5-0.6-2.8-0.9-4.2c-0.1-0.5-0.3-1.2-0.6-1.5c-0.3-0.3-1-0.6-1.5-0.5c-0.3,0-0.8,0.6-0.8,1
		c0,0.9,0.3,1.8,0.4,2.7c0.1-0.8,0.3-1.6,0.4-2.5c1.5,1.2,2.2,3.5,2.3,7.8c-1.8-1.5-1.5-3.9-2.7-5.4c-2.3,1.3-2.3,1.3-1.4,3.9
		c1.3,3.8,3.6,7,5.6,10.5c0.2,0.3,0.3,0.6,0.5,0.9c-0.2,0.1-0.4,0.3-0.5,0.4c-3.8-4.4-7.5-8.9-11.3-13.3c-0.4-0.5-0.8-1.1-1.1-1.6
		c-1.5-2.4-3.2-4.7-1.8-7.8c0.4-0.8,0.3-1.8,0.5-2.8c0.1-0.4,0.2-0.8,0.1-1.1c-0.9-2-1.5-3.9-1-6.1c0.1-0.3-1-0.9-1.8-1.5
		c-0.6-2,0.2-4.8-2.2-6.7c-1.5,1.2-1.1,2.8-1.5,4.2c-0.5,0-1,0-1.6,0c0,0.6,0.1,1.1,0.1,1.7c2,0.5,2.4,1.2,2.5,4.3
		c-0.9-1.6-1.7-3-2.5-4.4c0.3,2.6,1.4,4.8,2.5,7.1c1.2,2.3,1.8,4.9,2.4,7.5c-0.4-0.4-0.8-0.7-1-1.1c-1.6-2.6-3.3-5.1-4.7-7.7
		c-1-1.8-1.8-3.7-2.6-5.6c-1.3-3.1-2.4-6.4-3.8-9.5c-0.6-1.2-0.2-2.1,0.3-3.1c-0.4,0.1-0.8,0.2-1.6,0.5c0.6-1.9,1.6-3,2.5-4.2
		c0.2,0.1,0.4,0.2,0.6,0.3c-0.4,1.1-0.9,2.2-1.3,3.3c1.7-0.6,1.7-2.2,1.8-3.5c0-0.5-0.9-1.1-1.5-1.7c-0.8,1.1-1.4,1.9-2.2,3
		c-1.1-2,0.2-3.6,0.4-5.8c-0.6,0.9-0.9,1.4-1.2,1.8c-0.1-0.1-0.3-0.2-0.3-0.3c-0.7-7.5,0.3-14.7,3.4-21.6c0.2-0.3,0.4-0.7,0.4-1.1
		c0-2,1.1-3.1,3-3.6c0.4-0.1,0.7-0.5,1.1-0.8c-0.5-0.1-0.9-0.1-1.6-0.2c1.5-2,3.2-3,6.3-2.9c-2,1.3-3.4,2.2-4.8,3.2
		c2.5-0.5,4.7-1.6,6.8-3.8c-3.2-0.9-5.5,0.1-8.2,1.8c1-2.2,0.7-4.6,3.5-5c1.1-2,3.6-1.9,5-3.4c-0.5,0-0.9,0-2,0
		c1.2-1,1.9-1.7,2.7-2.4c-1.2,0.5-2.4,0.9-3.8,1.4c-0.3-1.4,0.6-2,1.6-2.5c1.5-0.7,3-1.2,4.4-1.9c0.9-0.4,1.9-0.9,2.7-1.5
		c0.3-0.3,0.3-1,0.5-1.5c-0.5-0.1-1-0.4-1.5-0.3c-0.9,0.1-1.8,0.5-2.9,0.4c0.9-0.8,1.9-1.6,2.8-2.4c-0.1-0.2-0.4-0.6-0.3-0.7
		c1.6-2.2,3.6-3.8,6.4-4.2c0.4-0.1,0.8,0.3,1.3,0.5c-0.9,0.9-1.6,1.7-2.4,2.5c1.2-0.7,2.4-1.4,3.8-2.2c-0.7-0.8-1.1-1.4-1.6-1.9
		c0.8-0.4,1.6-0.9,2.4-1.3c-1.3,0.2-2.5,0.4-3.8,0.6c2.4-1.6,4.5-3.8,7.9-3c-1.4,0.8-2.8,1.7-4.2,2.5c2.1-0.4,4.3-0.8,5.5-3
		c-1.5-0.8-1.5-0.8-3.8-0.7c1.8-2.4,5.5-1.8,6.8-4.8c-4.2,1.3-7.7,3.3-11.1,6c-0.5-0.6-1-1.1-1.5-1.7c-3,0.8-4.4,2.9-5,5.7
		c-0.5,2.3-0.4,2.3-2.5,4.2c-0.2-0.1-0.5-0.1-0.8-0.2c-2.4-0.8-3.5-0.3-3.9,2.1c-0.1,0.7-0.2,1.6,0,2.3c0.5,1.6-0.1,2.7-1.5,4.1
		c0.2-1.8-0.8-2.2-2.7-2.1c2.8-4.1,5.4-7.7,7.8-11.4c2.1-3.1,4.4-6,7.7-7.8c4.8-2.6,9.3-5.5,14.6-7c1.8-0.5,3.4-0.2,5.1,0
		c1.6,0.2,3.2,0.4,4.8,0.2c1.6-0.2,1.8-1,1.2-2.7c2.1-0.6,4.1-0.8,6.3-0.4c2.8,0.5,5.5,1.4,8,2.7c1.8,0.9,2.1,0.7,3.2-0.9
		c-1.8-1.1-3.6-2.2-5.3-3.3c0.1-0.3,0.2-0.7,0.3-1.1c-0.9,0-1.8,0.1-3.1,0.2c1.7-1,2.8-0.8,4-0.2c1.2,0.6,2.4,0.9,2.9-1.1
		c-2.9-0.9-5.8-1-8.1,0.9c-1.3,1.1-2.6,1.4-4.1,1.6c-1.6,0.1-3.2,0.3-5,0.5c0.5-0.8,0.9-1.4,1.3-2.1c-0.3-0.2-0.5-0.5-0.8-0.5
		c-4.4-0.8-7.7,0.7-10.1,4.3c-0.3,0.4-0.8,0.9-1.2,1.1c-3.8,1.8-7.6,3.6-11.3,5.4c-0.3,0.2-0.7,0.3-1.2,0.2c2.2-2.7,4.7-4.9,7.3-7.2
		c3.1-2.8,6.8-4.6,10.7-5.8c1.2-0.4,2.6-0.3,3.9-0.2c1.1,0,2.3,0.4,3.4,0.4c2.4,0.1,2.7-0.6,1.5-3.3c2.5,1.2,4.8-0.1,7,0.4
		c2.2,0.5,4.2,1.7,6.8,1.3c-0.4-1.9-2.2-2-3.3-2.9c0.2-0.7,1.9-0.2,1.3-1.6c-1.5,0.3-3,0.5-4.8,0.9c1.7-2.6,4.6-2.1,6.6-3.6
		c-3-0.8-5.6,0-7.4,2.2c-1.8,2.2-3.9,2.5-6.5,2.3c0.7-0.8,1.4-1.5,2.3-2.5c-4,0.1-6.3,2.3-9,4.1c-0.9,0.6-1.7,1.3-2.6,1.6
		c-5.3,1.5-9.7,4.5-13.5,8.3c-0.6,0.6-1.2,1.2-1.9,1.8c-0.1,0.1-0.3,0.2-0.6,0.1c2-2.5,3.8-5.2,6.5-7.1c2.8-1.9,5.6-3.6,8.3-5.5
		c3.9-2.7,8.6-3.5,12.8-5.6c1.1-0.5,2.4-0.7,3.6-0.7c3.2,0.2,6.2-1.1,9.3-1.3C88,14.3,92.4,13.4,97,14c3,0.4,6,0.3,9,0.2
		c3.8-0.1,7.4,0.2,11.1,1c4.6,1.1,9.4,1.9,14,2.9c1.9,0.4,3.7,1.1,5.4,1.8c3.5,1.4,7.1,2.9,10.5,4.5c3.3,1.6,6.5,3.5,9,6.1
		c-0.6,1.3-1.1,2.5-1.6,3.6c-2.3-1.7-3.3-5.5-7.1-6c-0.3,1.5-0.3,1.5,0.6,4.2c-1.4,0.4-2.1-0.2-2.6-1.5c-0.4-1.2-0.8-2.3-1.4-3.4
		c-0.5-1-1.4-1.7-2.6-1.2c-1.1,0.4-1.1,1.5-1,2.4c0,0.5,0.2,1.1,0,1.9c-1.1-1-2.1-1.9-3.2-2.9c0.2,0.4,0.3,0.9,0.5,1.3
		c-3-0.5-5.1-2.8-5.1-6c1.5,1.3,2.7,2.3,3.9,3.4c-0.3-1.9-1.6-2.9-3.1-3.8c-0.4-0.2-1.3-0.4-1.5-0.1c-0.4,0.4-0.6,1.3-0.4,1.7
		c0.8,1.7,1.8,3.3,2.9,5.3c-0.6,0-1.3,0.1-1.9,0c-1.1-0.3-2.1-1-3.2-1.2c-1.1-0.2-2.3-0.3-3.3,0.1c-0.7,0.3-1.2,1.4-1.3,2.2
		c-0.2,1.1,0.8,1.4,1.7,1.5c1.3,0.1,2.6,0,4,0c-0.2,0.9-0.5,1.8-0.7,2.7c1.4,1,2.3,0.1,3.1-0.6c0.8-0.7,1.4-1.5,2.2-2.3
		c0.8-0.8,1.6-1.4,3-0.7c-1,1.7-4,1.4-3.9,4.2c3,1.7,5.1-1.8,8.1-1.6c-0.8,1.1-1.6,2.2-0.6,3.7c2.6,0.6,5-0.3,7.3-1.5
		c1.2-0.6,2.4-1.3,3.6,0.1c-0.9,0.2-1.6,0.4-2.4,0.6c0.5,2.9,2.5,4.3,5.3,3.7c4.6-0.8,6.1-0.1,8.5,4c0.5,0.8,1.1,1.5,1.8,2.2
		c1.1,1,2.1,2.1,2.6,3.7c0.5,1.8,2.2,2.3,3.7,2.8c1.7,0.5,2.7,1.6,3.4,3.1c1.9,3.9,3.8,7.8,5.7,11.8c-0.7,0.4-1.5,0.9-2.3,1.4
		c-1.1-1.2-0.6-3.8-3.3-4.1c-0.5,2,0.5,3.7,1,5.5c-0.6,0.4-1.3,0.9-1.9,1.4c0.6,2.4,3.2,2.1,4.4,3.5c-0.3,3-0.1,3.1,5.4,4.2
		c0.7,1,1.4,2,2,3.1c0.5,1,0.9,1.9,0.5,3.2c-0.5,1.7-0.2,3.5-0.3,5.3c0,1.6,0.5,3-0.4,4.7c-0.7,1.3,0.2,2.8,1.5,3.8
		c0.8,2.1,0.6,4-0.2,6.2c-1,2.7-1.3,5.7-2,8.6c-2.4,10.5-6.1,20.5-12.5,29.4c-4.1,5.8-8.4,11.5-14,16.1c-2.7,2.2-5.3,4.6-8.2,7.2
		c0.1-1.4,0.1-2.3,0.2-3.2c-2.1-1.2-4.3,1.3-6.1-0.8c0.4-0.8,1.4-1,2.5-1.3c2-0.5,3.9-1.4,5.8-2.1c0,0,0,0.1-0.1,0.1
		c1.4-0.1,2.3-0.9,2.9-2.3c-0.6-0.4-1.3-0.9-2.3-1.6c0.8-0.4,1.5-1,2-0.9c2.1,0.4,3.7-0.7,5.4-1.5c0.4-0.2,0.7-0.8,1.1-1.2
		c-1,0.4-2.1,0.8-3.1,1.1c0.5-1.8,1.9-2.1,3.2-2.4c0.1,0.3,0.1,0.6,0.2,0.9c0.8-0.4,1.6-0.8,0.9-2.1c-0.9,0.1-1.9,0.2-2.9,0.3
		c1.5-3.4,4.9-4.2,8.5-5.8c-1.2-0.1-1.8-0.2-2.7-0.3c0.9-1.5,2.2-2.2,3.6-2c1.2,0.1,1.3,0.9,0.5,2c0.4-0.5,1.1-0.9,1.1-1.4
		c-0.1-1.8-1.6-1.5-2.8-1.7c0.1-1.5,1-2.1,2.3-2.6c1.6-0.7,3.1-1.5,4.5-2.5c0.9-0.6,1.4-1.6,2.5-2.9c-1.6-0.3-2.5-0.5-3.6-0.7
		c0.4-2,1.4-3.4,3.6-4.3c1.8-0.7,3.8-2,3.5-4.8c-0.9-0.1-1.7-0.3-2.5-0.4c0.9-2.8,1.8-5.7,2.7-8.6c-1.5-0.7-2.3,0-2.9,0.9
		c-1.2,1.7-2,3.6-1.6,5.6c0.3,1.5-0.4,2.7-1.2,3.9c0-1,0.2-2-0.1-2.9c-0.2-0.7-0.9-1.7-1.4-1.8c-0.6-0.1-1.5,0.7-1.9,1.3
		c-0.8,1.3-0.9,2.8,0.2,4c2.5,2.8,1.2,5.3-0.6,8.3c-0.3-1.9-0.5-3.4-0.7-4.8c-0.2,0-0.5-0.1-0.7-0.1c-0.5,0.9-1.3,1.8-1.5,2.8
		c-0.3,1.9-1.2,3.8-0.4,5.8c0.1,0.4,0,0.9-0.2,1.3c-0.8,1.3-1.7,2.5-2.8,4.1c-0.2-2.3,1.6-4.1,0.3-6c-2.5,0.7-3.9,1.9-3.4,4
		c0.8,4.1-0.9,6.9-3.9,9.3c-0.1,0.1-0.2,0.1-0.4,0.3c0.4-1.8,1.9-3.4,1.1-5.5c-2.8,1.3-4.1,3.4-4.1,6.1c0,3.1-2.1,4.4-4.1,6
		c-0.2-0.3-0.4-0.5-0.4-0.6c0.2-1,0.9-2.3-0.4-2.7c-0.8-0.3-2,0.3-2.8,0.8c-2.3,1.5-2.6,2.8-1.7,6.4c-1.1,0.8-2.2,1.6-3.5,2.6
		c-0.2-1.9,1.7-3.6-0.5-5.4c-0.6,0.7-1.5,1.3-1.9,2.2c-0.5,1-0.9,2.1-1,3.2c-0.2,3.3-2.4,4.6-5.3,5.5c0.4-1.1,0.8-1.9,1-2.8
		c0.1-0.5,0-1.4-0.2-1.5c-0.6-0.1-1.3-0.1-1.8,0.2c-0.6,0.4-1.1,1.1-1.4,1.7c-0.4,0.8-0.9,1.7-1,2.6c-0.3,2.3-1.8,3.3-4,4.1
		c0.7-2.5,2.7-4.5,2.1-7c-0.2-0.1-0.4-0.1-0.6-0.2c-0.8,1.9-1.8,3.7-2.5,5.6c-0.6,1.9-1.8,3-3.8,3.7c0-0.5,0-0.8-0.1-1.2
		c0,0-0.1,0-0.1,0.1c1-1,1.3-2,0-3.2c-1.8,0.2-2.1,1.9-3.2,2.9c-3.2-0.1-4.6,1.4-5.5,5.9c-1.4-0.2-2.4,1.7-4,0.6
		c-0.4,0.4-0.9,0.8-1.8,1.7c0-1.3,0-2,0-2.8c-0.3,0.3-0.7,0.6-0.8,0.7c-1.1-0.5-2-1-3.1-1.3c-0.3-0.1-1,0.4-1.3,0.8
		c-0.2,0.3,0.1,0.9,0.4,1.2c0.5,0.5,1.2,0.9,2.2,1.7C102.3,183.4,101,183.7,99.8,183.5z M69,168.6c0.3,1.1,0.5,2.2,0.7,3.3
		c-0.2,0.1-0.5,0.1-0.7,0.2c-1-2.1-1.3-4.3-1-6.9C69.5,166.2,68.8,167.5,69,168.6z M64,166c-0.1,0.1-0.3,0.2-0.4,0.3
		c-0.4-0.5-0.8-1.1-1.2-1.6c0.2-0.2,0.2-0.3,0.3-0.3C63.1,164.9,63.5,165.4,64,166z M48.1,155.1c-1.7-3-0.5-5.7-0.1-8.7
		C49.2,148.1,49.1,151.2,48.1,155.1z M43.8,146.8c-0.1,0.1-0.2,0.1-0.3,0.2c-0.3-0.4-0.5-0.9-0.8-1.3c0.1-0.1,0.2-0.2,0.4-0.3
		C43.3,145.8,43.5,146.3,43.8,146.8z M30.4,126.2c-1.6-2.5-1.9-4.4-1.3-7.1C30.3,121.5,30.4,123.5,30.4,126.2z M25.6,61.6
		c0.3,0.1,0.5,0.2,0.8,0.2c-0.3,0.8-0.5,1.5-0.8,2.3C24.8,63,24.8,62.2,25.6,61.6z M30.7,58.3c-0.9-1.4-0.9-2.5-0.2-3.2
		c0.3-0.3,1.1-0.3,2.3-0.5C31.9,56.2,31.3,57.2,30.7,58.3z M35.7,58.5c0.1,0.2,0.3,0.5,0.4,0.7c-1.4,0.7-2.9,1.5-4.3,2.2
		c-0.1-0.2-0.2-0.4-0.3-0.6C32.8,60.1,34.2,59.3,35.7,58.5z M37.5,50.2c0.1-2.5,1-3.8,3.5-4.6C40.8,48.1,39,48.8,37.5,50.2z
		 M57.6,31.2c1.6-2.4,3.8-3.1,6.4-2.7C63,30,60.5,31,57.6,31.2z M64.8,32.9c0,0.2-0.1,0.5-0.1,0.7c-1.4-0.2-2.9-0.4-4.3-0.6
		C62,31.8,63.4,32.2,64.8,32.9z M65,24.4c0-0.2,0-0.3,0.1-0.5c0.8,0.1,1.6,0.2,2.4,0.3c-0.1,0.2-0.1,0.5-0.2,0.7
		C66.5,24.8,65.7,24.6,65,24.4z M132.6,31.9c0.1,0.2,0.3,0.3,0.4,0.5c-0.6,0.5-1.2,1.1-1.8,1.6c-0.1-0.2-0.3-0.3-0.4-0.5
		C131.4,32.9,132,32.4,132.6,31.9z M125.8,31.2c-0.5-1-0.5-1.8,0.5-2.2c1.8-0.8,3.2,0.3,4.8,1.2C129.3,31.8,127.6,31.4,125.8,31.2z
		 M178.9,73.6c-0.1,0.2-0.2,0.3-0.2,0.5c-0.8-0.3-1.7-0.7-2.5-1c0.1-0.2,0.2-0.5,0.3-0.7C177.3,72.8,178.1,73.2,178.9,73.6z
		 M152.7,169.5c-1,1.5-1.1,1.5-5,1.6C149.3,169.5,151,169.6,152.7,169.5z M150.1,164.9c-0.4,1.7-0.8,3.2-2.3,4.3
		C147.7,165.9,147.9,165.5,150.1,164.9z M145.2,166.7c-1.6,1.1-3.4,0.9-5.5,0.7c2-2.1,3.8-3.1,6.7-2.1
		C145.9,165.9,145.7,166.4,145.2,166.7z M145.7,168.4c-0.7,1.1-0.7,2.4-2,3.1C143.9,168.9,143.9,168.8,145.7,168.4z M139.4,171.1
		c-0.6,0.2-1.4,1-1.5,1.6c-0.1,2.6-2,2.6-4,3.1c0.3,0.2,0.7,0.3,1.1,0.5c-7.9,3.9-16.1,6.2-24.9,6.3c2-0.9,3.9-2.1,6.3-1.8
		c1.5,0.2,3-0.1,4.6-0.4c0.5-0.1,1.2-0.3,1.5-0.7c1.1-2.1,3.1-1.8,5-2c1.7-0.1,1.7-0.1,2.9-1.5c-1.2-0.4-2.3-0.8-3.4-1.2
		c0-0.2,0-0.4-0.1-0.6c1.6-0.5,3.1-1,4.7-1.4c0.9-0.2,1.9-0.3,2.8-0.6c2-0.6,2.4-1.4,2.2-3.9c2.1,0,4,0,6.3,0
		c-0.5,1.1-0.9,2.1-1.3,3.1C140.9,171.5,140,171,139.4,171.1z M140.4,172.8c-0.1,0.4-0.3,0.7-0.7,1.3c-0.3-0.5-0.7-0.9-0.6-1
		c0.2-0.3,0.6-0.6,0.9-0.9C140.1,172.4,140.5,172.7,140.4,172.8z M113.3,179.2c1.1-1.4,1.8-2.5,2.7-3.7c1.2,1.1,0.8,2,0.4,2.9
		C116,179.7,115,179.5,113.3,179.2z M118.1,177.1c0.2-1.8,1.1-3,2.4-4.3c0.2,0.9,0.3,1.4,0.5,2C120.1,175.5,119.2,176.2,118.1,177.1
		z M121.9,178.6c-1.5,1.4-1.5,1.4-3.4,0.9c0-0.2,0-0.4,0-0.6C119.6,178.8,120.6,178.7,121.9,178.6z M123.6,177.1
		c2-1.5,2.9-1.5,5.3,0C127,177.1,125.4,177.1,123.6,177.1z M131.7,169.5c-0.3-1.7,0.3-2.8,1.6-3.6c0.2,0.1,0.4,0.3,0.6,0.4
		C133.1,167.4,132.4,168.4,131.7,169.5z M135.7,171.3c-1.4,0.3-2.3,0.5-3.2,0.7C133.1,170.8,133.9,170.2,135.7,171.3z M141.8,159.6
		c0.3,2.1-1,3.4-1.7,5.4C139.8,162.1,139.9,161.9,141.8,159.6z M153.1,160.1c-1.2,0.2-2.3,0.4-3.6,0.6c1.6-2.6,2.3-3,5.4-2.5
		C154.2,158.9,153.7,159.5,153.1,160.1z M146.8,159.4c-0.7-2.5-0.1-3.4,3-4.6C149.3,157,148.3,158.3,146.8,159.4z M156,150
		c0.6-1,1.1-2,1.9-3.4C157.9,148.6,157.9,148.6,156,150z M165.4,138.7c-0.4,1.1-0.8,2.3-1.2,3.4
		C163.2,140.6,163.4,139.4,165.4,138.7z M169.2,136.2c0.3-1.6,0.7-3.1,1-4.7c0.2,0.1,0.5,0.2,0.7,0.3c-0.4,1.5-0.8,3-1.2,4.6
		C169.6,136.3,169.4,136.3,169.2,136.2z M171.9,136.8c0.9-1.6,2.1-2.7,4.4-2.9C175.2,135.9,173.7,136.6,171.9,136.8z M174.3,125.7
		c-2-2-2-2.5,0-4.1C175.6,123.1,173.7,124.4,174.3,125.7z M177.1,127.6c0.2-2.3,0.5-2.5,3.5-2.9
		C179.8,126.3,178.8,127.3,177.1,127.6z M178.1,118.7c0.4-0.8,0.8-1.6,1.3-2.4c0.2,0.1,0.4,0.2,0.6,0.3c-0.3,0.8-0.7,1.7-1,2.5
		C178.6,119,178.4,118.8,178.1,118.7z M104.4,182.2c-0.9-0.7-1.5-1.1-2.1-1.5C103.8,180.4,103.8,180.4,104.4,182.2z M107.5,193.4
		c-1.2-1.9-1-3.4-0.4-5.4C108.5,190,108.4,191.5,107.5,193.4z M128.4,187.3c-0.1,0.2-0.2,0.5-0.3,0.7c-2.3-0.6-4.7-1.2-7.5-1.9
		c1.6-0.5,2.5-0.8,3.4-1.2C125.5,185.8,126.9,186.5,128.4,187.3z M121.5,184.4c-6.7,1.5-13.6,1-20.4,0.5c2.9-0.2,5.8-0.7,8.7-0.7
		c5.5,0,10.7-1.5,16.1-2.6c0.5-0.1,1.1-0.4,1.6-0.6c3.5-1.5,7-3,10.5-4.4c0.6-0.2,1.4-0.2,2.1,0.1
		C134.4,180.2,128.2,182.9,121.5,184.4z M132.4,182.7c1.8-1.1,2.5-1.2,5.1-0.6C135.9,183.3,134.3,182.7,132.4,182.7z M138.5,179.8
		c1.3-0.6,2.5-1.8,4.3-0.3C141.3,180.4,139.9,179.9,138.5,179.8z M147.3,172.8c-1.3,1.5-2.8,1-4.5,0.8
		C144.3,172.3,145.7,172.4,147.3,172.8z M143.9,177.4c0-0.2,0-0.4-0.1-0.6c1.3-0.1,2.7-0.2,4-0.3
		C146.6,177.9,145.3,177.5,143.9,177.4z M155.5,172.8c-2.6,1.5-4.9,2.1-7.9,2C150.1,173,152.3,172.2,155.5,172.8z M168.9,162.3
		c-1.4,0.4-2.7,0.9-4.1,1.3c-0.1-0.2-0.2-0.4-0.3-0.6c1.4-0.5,2.8-0.9,4.2-1.4C168.7,161.8,168.8,162.1,168.9,162.3z M175.3,156
		c-1.9,2.4-4.3,2.2-6.4,2.9C170.5,157.2,172.4,156.4,175.3,156z M179.5,149.9c-1,2-1.2,2.1-4.3,3c-0.1-0.2-0.2-0.3-0.3-0.5
		C176.4,151.6,177.8,150.8,179.5,149.9z M175.4,147.1c-2,4.1-4.9,7.6-8.1,10.9c-2.9,3-5.9,5.9-9.2,8.4c-2,1.5-3.9,3.1-6.8,1.9
		c19.6-14.5,32.1-33.4,36.4-57.4c0.3,0,0.5,0.1,0.8,0.1c-0.5,2.6-0.8,5.2-1.4,7.8C184.5,128.7,179.8,137.9,175.4,147.1z
		 M182.6,143.3c0.1,0.1,0.2,0.3,0.2,0.4c-0.5,0.3-1.1,0.7-1.6,1c-0.1-0.2-0.3-0.3-0.4-0.5C181.4,143.9,182,143.6,182.6,143.3z
		 M191.6,114.1c-0.9,3-1.8,5.9-2.8,8.8c-1,2.9-2.2,5.6-3.1,8.5c-1.5,4.9-4.2,9.1-7.7,12.9c1.5-3.3,3-6.5,4.4-9.8
		c1.3-3,2.6-6.1,3.7-9.2c2.3-6.8,4-13.8,4.1-21c0-0.7,0.2-1.3,0.4-1.9c0.1-0.2,0.3-0.4,0.7-0.8c0.8,1.4,1.5,2.4,0.5,3.9
		c-1.3,2.1-1.7,4.4-0.3,6.7C191.8,112.7,191.8,113.5,191.6,114.1z M191.6,111.1c0.2-1.7,0.4-3.1,0.5-4.4c0.2,0,0.4,0.1,0.6,0.1
		C192.8,108.2,193.4,109.6,191.6,111.1z M193.7,104.2c-1.3-2.3-2.4-4.5-1.3-7.1C193.6,99.3,195.3,101.3,193.7,104.2z M198.4,104.5
		c-0.5,2.5-2,4.3-4.2,5.8C193.9,107.1,196.4,106,198.4,104.5z M197.5,101.9c-0.6,0.4-1.1,0.8-1.7,1.2c-0.1-2.2-0.1-2.2,3.4-5
		C198.7,99.4,198.1,100.7,197.5,101.9z"/>
	<path fill="#231f20" d="M54.9,18.6c0.2-0.1,0.2-0.6,0.3-0.9c1.6-0.2,2-1.3,1.8-2.8c-0.7,0.1-1.3,0.1-2,0.2c0.6-1.2,1.1-2.2,1.7-3.2
		c-1.1,1-2.2,1.9-3.4,3c-1.2-1.7,1.3-2.2,0.9-3.4c0.5-0.1,1-0.3,1.4-0.3c0.5,0,0.9,0.2,1.4,0.3c0.2-0.5,0.5-0.9,0.7-1.4
		c-1.3,0.3-2.9-0.2-3.6,1.3c-0.6,0.4-1.2,0.7-1.8,1.1c0.1-1.4,0.1-1.4-0.5-2.7c-2.8,3.7-5.6,9.7-5.3,11.9
		C49.5,21.1,52.3,20.3,54.9,18.6z M55.9,15.9c0.1,0.1,0.2,0.3,0.3,0.4c-0.3,0.5-0.7,0.9-1,1.4c-1.2,0.5-2.5,1-3.7,1.5
		c-0.1-0.2-0.2-0.4-0.3-0.5C52.8,17.7,54.4,16.8,55.9,15.9z"/>
	<path fill="#231f20" d="M91.7,22.3c0.9,1.3,1.8,0.8,2.7-0.1c0.2-0.2,0.3-0.6,0.4-1c-0.8-0.5-1.4-0.9-2.6-1.6
		c3.7-0.4,6.8-1.9,9.6,0.8c0.1,0.1,0.2,0,0.3,0.1c1.6,0.6,3.2,1.2,4.8,1.9c1.7,0.7,2.1,0.6,3.3-1.6c-1.4-0.6-2.8-1.1-4.1-1.7
		c1.3-1.3,3.8-0.2,5.2-2.4c-1.3-0.3-2.2-0.7-3.2-0.8c-2.1-0.3-3.8,0.9-5.7,1.7c-0.7,0.3-1.6,0.6-2.4,0.7c-2.4,0.1-4.8,0-7.2,0
		c0-0.3,0.1-0.9,0.2-1.5c-1.8-0.9-3.4-0.7-4.7,0.4c-2.2,1.8-4.6,2.5-7.4,2.4c-0.2,0-0.3,0.1-0.5,0.1c1.6,0.2,3.3,0,4.6,0.7
		C87.1,21.6,89.4,21.8,91.7,22.3z M108.7,21.2c-0.1,0.2-0.2,0.5-0.3,0.7c-1.3,0-2.3-0.8-3-2C106.5,20.3,107.6,20.8,108.7,21.2z
		 M108.4,16.7c0,0.3,0.1,0.6,0.1,0.8c-1.1,0.1-2.1,0.1-3.2,0.2c0-0.2-0.1-0.3-0.1-0.5C106.3,17,107.3,16.8,108.4,16.7z M89.9,20.5
		c1.2,0.4,2.3,0.7,3.5,1.1c0,0.1,0,0.3-0.1,0.5c-0.6,0.1-1.1,0.1-1.7,0.2c0,0,0,0,0,0c-0.6-0.5-1.2-1-1.8-1.5
		C89.9,20.7,89.9,20.6,89.9,20.5z"/>
	<path fill="#231f20" d="M32.2,64.1c1-0.2,1.9-0.3,2.9-0.5c0.1,0.2,0.1,0.3,0.2,0.5c-1.4,0.9-2.8,1.7-4.2,2.6c2.3-0.3,4.2-1.3,6-2.8
		C35.2,62.4,34,62.5,32.2,64.1z"/>
	<path fill="#231f20" d="M19.7,100.5c0,1.1,0,2.2,0,3.2c0.2,0,0.3,0,0.5,0c-0.1-1.1-0.2-2.2-0.2-3.3
		C19.9,100.5,19.8,100.5,19.7,100.5z"/>
	<path fill="#231f20" d="M74.8,67.1c0.2,0.1,0.4,0.2,0.5,0.3c0.2,0,0.3,0.1,0.3,0.2c0,0,0.1,0.1,0.2,0.1c0.1,0,0.2-0.1,0.2-0.4
		c0-0.2,0-0.4,0-0.4c0.1,0,0.2,0,0.2-0.1c0-0.1,0-0.1-0.1-0.1c-0.1,0-0.1-0.1-0.1-0.2c0-0.1,0-0.3-0.1-0.4c0-0.3-0.1-0.7-0.2-1.2
		c-0.2-0.5-0.3-0.8-0.4-0.9c-0.1,0-0.2-0.2-0.3-0.5c-0.1-0.4-0.2-0.6-0.2-0.6c0-0.1-0.2-0.2-0.5-0.2c-0.3,0-0.5,0.1-0.6,0.2
		c-0.1-0.1-0.3-0.2-0.7-0.2c-0.4,0-0.6,0-0.6,0.1c0,0.1,0,0.2-0.1,0.2c-0.1,0-0.1-0.1-0.1-0.2h-0.2c-0.1,0.1-0.5,0.2-1,0.2
		c-0.2,0-0.4,0-0.6-0.1c-0.2,0-0.3-0.1-0.3-0.2c0,0,0,0-0.1,0c-0.1,0-0.2,0-0.2,0.1c0,0.1,0,0.1-0.1-0.1v-0.1l-0.1,0.1
		c-0.1,0.2-0.1,0.2-0.1,0.1c0-0.1-0.1-0.1-0.2-0.1c-0.1,0-0.1,0-0.2,0s-0.1,0-0.1,0.1c0,0.1-0.1,0.1-0.1,0c0-0.1-0.1-0.1-0.2-0.1
		c-0.1,0-0.2,0-0.2,0.1c0,0-0.3,0-0.7-0.1c-0.5,0-1-0.1-1.5-0.1c-0.6,0-1.1,0-1.7,0c-0.6,0-1,0-1.3,0c-0.4,0-0.5,0.1-0.6,0.2
		c0,0-0.1,0.1-0.3,0.1c-0.1,0-0.4,0-0.6,0.1c-0.3,0-0.6,0.1-0.8,0.1c-0.3,0-0.5,0.1-0.7,0.1c-0.2,0-0.3,0.1-0.3,0.1
		c-0.1,0.1-0.3,0.2-0.4,0.2c-0.4,0.1-0.9,0.2-1.3,0.3c-0.4,0.2-0.6,0.3-0.6,0.3c0,0,0,0-0.1,0c-0.2,0-0.4,0.1-0.6,0.3
		c-0.2,0.2-0.3,0.3-0.3,0.4c0,0.3,0.3,0.4,0.8,0.2c0.4-0.1,0.6-0.1,0.8-0.1c0.1,0,0.2,0.1,0.3,0.2c0.1,0.5,0.3,1.2,0.5,2
		c0,0,0.1,0.2,0.2,0.4c0.1,0.3,0.1,0.6,0.2,0.9c0.1,0.3,0.1,0.7,0.2,1.1s0.1,0.7,0.1,0.9c0.1,0.3,0.1,0.5,0.1,0.6
		c0,0.1,0,0.2,0.1,0.2c0.1,0.2,0.1,0.4,0.1,0.5c0,0.1,0,0.2,0,0.4c0,0.1-0.1,0.2-0.1,0.2c0,0,0,0.7,0,1.9c0,1.2,0,1.8,0,1.9
		c0.1,0,0.2,0.4,0.2,1.2c0,0.8-0.1,1.3-0.2,1.3c0,0,0,1,0,2.8c0,0.8,0,1.7,0,2.8c0.1,0,0.1,0.3,0.1,1c0,0.6,0,1.4,0.1,2.3
		c0,0.9,0,1.9,0.1,3c0.1,1.1,0.1,1.9,0.2,2.5c0,0.6,0.1,1.4,0.1,2.4c0,1,0.1,2,0.1,3c0,1,0,1.9,0,2.7c0,0.8,0,1.3-0.1,1.5l-0.1,0.5
		h-0.3c-0.2,0-0.3-0.1-0.3-0.1c0-0.1-0.1-0.2-0.4-0.2s-0.4,0.1-0.5,0.2c-0.1,0.2-0.1,0.4-0.1,0.6c0,0.2,0.1,0.4,0.2,0.5
		c0,0,0.1,0.1,0.2,0.1c0.1,0,0.3,0,0.6,0c0.3,0,0.8,0,1.4,0c0.6,0,1.6-0.1,2.7-0.1c0.9-0.1,1.8-0.1,2.5-0.2c0.7-0.1,1.2-0.2,1.3-0.3
		c0.1-0.1,0.2-0.1,0.2-0.1c0.1,0,0.2-0.1,0.3-0.2c0.1-0.1,0.2-0.2,0.2-0.4c0-0.1-0.2-0.2-0.6-0.3c-0.4-0.1-0.9-0.1-1.5-0.1h-1.3
		l0.1-4.9c0-1.4,0-3-0.1-4.7c0-1.8-0.1-3.2-0.2-4.4c0-1.1,0-2.2,0-3.1c0-0.9,0-1.4,0-1.4v-0.2l1-0.2c0.2-0.1,0.5-0.2,0.7-0.2
		c0.2-0.1,0.4-0.1,0.4-0.1c0,0,0.1,0,0.1,0c0-0.1,0.1-0.1,0.4-0.2c0.3,0,0.5-0.1,0.6-0.1c0.1,0.1,0.2,0.3,0.2,0.5
		c0,0.3,0,0.5,0.2,0.7c0.1,0.2,0.2,0.3,0.2,0.3c0-0.1,0.1-0.1,0.2-0.1c0.2-0.2,0.4-0.5,0.6-0.9c0-0.3,0.1-0.5,0.2-0.5
		c0.1-0.3,0.1-0.5,0.1-0.6c0-0.2,0-0.4-0.1-0.6c0-0.2-0.1-0.3-0.2-0.3c-0.1-0.3-0.2-0.7-0.3-1.1c-0.2-0.4-0.3-0.6-0.5-0.8
		c-0.6-0.6-0.9-0.3-0.9,0.9c0,0.3,0,0.5,0,0.7c0,0.1,0,0.2-0.1,0.2s-0.2,0-0.4,0.1c-0.2,0-0.5,0.1-0.7,0.1c-0.3,0.1-0.5,0.1-0.7,0.1
		c-0.2,0-0.3,0-0.3,0.1c0,0-0.1,0-0.4,0h-0.4l-0.1-1.6c0-1.1-0.1-1.7-0.2-1.8c-0.1,0-0.1-0.3-0.1-0.9s0-1.8-0.1-3.5
		c0-1.2,0-2.3-0.1-3.3c0-1-0.1-1.7-0.1-1.9c0-0.2-0.1-0.6-0.1-1c0-0.5-0.1-0.9-0.1-1.4c0-0.5,0-0.9,0-1.3c0-0.4,0-0.6,0.1-0.7
		c0-0.1,0.2-0.2,0.4-0.2c0.1,0,0.2,0,0.3,0c0-0.1,0.8-0.2,2.3-0.2c0.7,0,1.5,0,2.5,0.1c0,0.1,0.1,0.1,0.4,0.2c0.2,0,0.5,0.1,0.9,0.1
		c0.5,0.1,0.9,0.1,1.1,0.1c0.2,0,0.3,0,0.4,0.1c0.1,0.2,0.4,0.5,0.7,0.9c0.3,0.4,0.7,0.6,0.9,0.8C74.3,66.7,74.6,67,74.8,67.1z"/>
	<path fill="#231f20" d="M99.8,104.2c-0.2-0.2-0.3-0.4-0.3-0.5c0-0.1-0.1-0.2-0.2-0.4c-0.1-0.1-0.3-0.5-0.5-1
		c-0.2-0.6-0.3-1-0.3-1.2c0-0.1,0-0.2,0-0.2c-0.1,0-0.2-0.4-0.2-1.2c-0.2-1.5-0.3-2.6-0.5-3.3c-0.1-0.7-0.2-1-0.3-1
		c0-0.1,0-0.2,0-0.4c0-0.2-0.1-0.4-0.2-0.6c-0.1-0.1-0.1-0.2-0.2-0.5C97,93.5,97,93.3,97,92.9c-0.1-0.2-0.1-0.5-0.1-0.7
		c0-0.2-0.1-0.3-0.1-0.2c0-0.2,0-0.3,0-0.4c0-0.1,0-0.5-0.1-0.9c-0.1-0.5-0.2-1-0.3-1.5c-0.1-0.5-0.2-1-0.3-1.4
		c-0.1-0.4-0.1-0.7-0.2-0.7c-0.1-0.7-0.2-1.2-0.4-1.6c-0.1-0.4-0.1-0.8-0.2-1.1S95.2,84,95.2,84c0-0.1,0-0.3-0.1-0.7
		c-0.1-0.4-0.2-1.2-0.4-2.4c-0.1-0.4-0.2-0.8-0.3-1.3c-0.1-0.1-0.1-0.3-0.2-0.8c-0.1-0.4-0.1-1-0.2-1.6c-0.1-0.6-0.2-1.1-0.3-1.5
		c-0.1-0.4-0.1-0.6-0.2-0.6c-0.1-0.3-0.1-0.5-0.1-0.6c0-0.3-0.1-0.6-0.2-1c-0.1-0.4-0.1-0.7-0.2-1.1c-0.1-0.4-0.1-0.7-0.2-0.9
		c-0.1-0.3-0.1-0.4-0.1-0.4c-0.1-0.7-0.2-1.3-0.4-1.7c-0.1-0.5-0.1-0.9-0.2-1.2c-0.1-0.3-0.1-0.5-0.2-0.6c0,0-0.1-0.1-0.1-0.4
		c-0.1-0.3-0.1-0.6-0.2-1.1c-0.1-0.4-0.1-0.8-0.1-1.2c0-0.4,0-0.7,0-1c0-1.1-0.1-1.8-0.4-2.1c-0.1-0.1-0.4-0.2-0.8-0.3
		c-0.4-0.1-0.8,0-1,0c-0.1,0-0.2,0.1-0.4,0.1c0,0.1-0.2,0.2-0.6,0.4c-0.5,0.2-0.8,0.5-1,0.7c-0.2,0.2-0.2,0.4,0,0.4l0.2,0.1
		l-0.1,0.5c0,0.4-0.1,0.6-0.1,0.6c-0.1,0.1-0.1,0.2-0.2,0.5c-0.1,0.3-0.2,0.6-0.2,1c-0.1,0.4-0.2,0.7-0.3,1
		c-0.1,0.3-0.2,0.5-0.2,0.5c-0.1,0.2-0.1,0.4-0.1,0.5c0,0.1,0,0.2-0.1,0.4c-0.1,0.2-0.1,0.4-0.2,0.5c-0.1,0.2-0.1,0.4-0.2,0.6
		s-0.1,0.4-0.1,0.5c0,0.4,0,0.6,0,0.7c-0.1,0-0.1,0.2-0.2,0.6c-0.1,0.4-0.2,0.9-0.3,1.4c-0.1,0.6-0.2,1.2-0.4,2
		c-0.1,0.1-0.1,0.3-0.2,0.7c-0.1,0.4-0.1,0.8-0.2,1.3c-0.1,0.4-0.2,1-0.4,1.7c-0.1,0.1-0.1,0.2-0.2,0.5c-0.1,0.3-0.1,0.6-0.2,0.9
		c-0.1,0.3-0.1,0.7-0.2,1.1c-0.1,0.4-0.1,0.7-0.2,1c0,0.2,0,0.4-0.1,0.5c-0.1,0.2-0.1,0.2-0.2,0.2c0,0.1,0,0.2-0.1,0.4
		c0,0.2-0.1,0.4-0.1,0.6c-0.1,0.2-0.1,0.4-0.2,0.7c-0.1,0.3-0.1,0.5-0.2,0.8c0,0.4-0.1,0.6-0.1,0.7c0,0-0.1,0.2-0.2,0.5
		c-0.1,0.3-0.2,0.7-0.3,1.2c-0.1,0.4-0.2,0.8-0.3,1.2c-0.1,0.4-0.1,0.6-0.1,0.7c0,0.1,0,0.2,0,0.2c-0.1,0-0.1,0.2-0.2,0.5
		c-0.1,0.3-0.2,0.7-0.3,1.1c-0.1,0.4-0.1,0.8-0.2,1.1c-0.1,0.3-0.1,0.5-0.2,0.6c-0.2,0.8-0.3,1.5-0.4,2.1c-0.1,0.5-0.2,1-0.3,1.4
		c-0.1,0.4-0.1,0.6-0.2,0.7c-0.1,0.4-0.1,0.7-0.1,1c-0.1,0.9-0.2,1.7-0.3,2.5c-0.1,0.8-0.2,1.3-0.3,1.3c0,0.1,0,0.1-0.1,0.1
		c0,0-0.1,0.1-0.1,0.1c0,0.2-0.1,0.4-0.3,0.8c-0.2,0.3-0.4,0.5-0.5,0.6c-0.2,0.1-0.5,0.2-0.8,0.5c-0.3,0.3-0.6,0.5-0.9,0.7
		c-0.1,0.1-0.2,0.3-0.2,0.5c0,0.2,0.1,0.4,0.2,0.4c0.8,0,1.5,0.1,1.9,0.1c1,0.1,1.8,0.1,2.2,0c0.4-0.1,0.6-0.2,0.7-0.4
		c0-0.2,0-0.3-0.1-0.5c-0.1,0-0.1-0.1-0.2-0.2c0.1-0.1,0.1-0.1,0-0.1c0,0-0.1-0.1-0.2-0.1c-0.1,0-0.1-0.2-0.2-0.6
		c-0.1-0.4-0.1-0.9-0.1-1.6c0-0.3-0.1-0.7,0-1.1c0-0.4,0-0.8,0.1-1.2c0-0.4,0.1-0.7,0.2-1c0.1-0.3,0.1-0.4,0.2-0.4c0,0.1,0,0,0-0.2
		c0-0.2,0-0.4,0.1-0.7c0.1-0.6,0.1-1.3,0.3-2c0.1-0.7,0.2-1.1,0.4-1.1c0-0.1,0-0.1,0.1-0.1c0,0,0.1-0.1,0.1-0.1
		c-0.1-0.1-0.1-0.2,0-0.3c0-0.2,0.1-0.3,0.2-0.4l0.2-0.5l0.8,0.1c0.2,0,0.5,0,0.8,0.1c0.4,0,0.7,0.1,1,0.1c0.2,0,0.5,0,0.7,0.1
		c0.2,0.1,0.3,0.1,0.3,0.2c0.1,0,0.3,0,0.9,0.1c0.5,0.1,1.1,0.1,1.9,0.2c0.7,0.1,1.3,0.1,1.9,0.2c0.6,0.1,1,0.1,1.2,0.1l0.6,0.1
		l0.2,1.1c0.1,0.2,0.2,0.5,0.3,0.7c0.1,0.2,0.1,0.4,0.2,0.4c0,0,0,0.1,0.1,0.2c0.1,0.6,0.3,1.3,0.4,2c0.2,0.7,0.3,1.1,0.3,1.1
		c0.3,1.6,0.4,2.7,0.5,3.4l0.1,0.9l-0.2,0.5c-0.1,0.1-0.1,0.2-0.2,0.3c-0.1,0.1-0.2,0.2-0.2,0.2c-0.3,0.1-0.4,0.3-0.2,0.6v0.5
		l0.9-0.1c0.3,0,0.8,0,1.5-0.1c0.7,0,1.4-0.1,2.1-0.1c1-0.1,1.7-0.1,2.1-0.1c0.4,0,0.6-0.1,0.6-0.1c0-0.1,0.1-0.2,0.2-0.2
		c0.2,0.1,0.3,0,0.2,0c-0.1-0.1-0.2-0.2-0.4-0.3C100.2,104.5,100,104.4,99.8,104.2z M91.7,92.1h-0.5c-0.4,0-0.6,0.1-0.6,0.2
		c-0.6,0-1,0-1,0c0-0.1-0.2-0.2-0.6-0.2c-0.2,0-0.6,0-1.2,0c-0.6,0-1.2,0-1.9-0.1c-0.6-0.1-1.2-0.2-1.8-0.2c-0.6,0-1,0-1.3,0
		l-0.9-0.1l0.1-0.5c0-0.1,0-0.3,0.1-0.5c0-0.2,0.1-0.4,0.1-0.5c0.1-0.4,0.1-0.6,0.1-0.7c0.1,0,0.1-0.2,0.2-0.5
		c0.1-0.4,0.1-0.7,0.2-1.2c0.1-0.5,0.2-0.9,0.3-1.3c0.1-0.4,0.1-0.6,0.2-0.7c0.1-0.8,0.2-1.4,0.4-2c0.1-0.6,0.2-1,0.3-1.4
		c0.1-0.4,0.1-0.6,0.2-0.6c0-0.1,0-0.3,0.1-0.6c0.1-0.3,0.2-0.7,0.3-1.1c0.1-0.4,0.1-0.7,0.2-1c0.1-0.3,0.1-0.5,0.2-0.6
		c0.2-0.8,0.3-1.4,0.4-2c0.1-0.6,0.2-1,0.3-1.4c0.1-0.4,0.1-0.6,0.2-0.7c0.1-0.6,0.2-1.2,0.2-1.6c0.1-0.4,0.2-0.8,0.3-1.1
		c0.1-0.3,0.1-0.5,0.2-0.6c0.1,0,0.1-0.2,0.2-0.7c0.1-0.5,0.2-1.4,0.4-2.7c0.1-0.2,0.1-0.6,0.2-1c0.1-0.1,0.2-0.2,0.2-0.3
		c0-0.1,0-0.3,0.1-0.5c0.1-0.2,0.2-0.3,0.2-0.3c0.1,0.2,0.1,0.3,0.1,0.4c0,0.2,0,0.4,0,0.5c0,0,0.1,0.2,0.2,0.7
		c0.1,0.5,0.2,1,0.2,1.6c0.1,0.6,0.2,1.2,0.2,1.7c0.1,0.5,0.1,0.9,0.1,1c0,0.1,0.1,0.2,0.1,0.2c0.1,0,0.1,0.3,0.2,0.9
		c0.1,0.6,0.1,1.2,0.2,2c0.1,0.7,0.2,1.4,0.3,1.9c0.1,0.6,0.1,0.9,0.2,0.9c0.1,1,0.2,1.8,0.4,2.5c0.1,0.7,0.2,1.3,0.3,1.8
		c0.1,0.5,0.2,0.8,0.2,0.8c0.1,0.4,0.1,0.8,0.1,1.1c0.2,1.3,0.3,2.5,0.5,3.6c0,0,0.1,0.2,0.1,0.6s0.1,0.8,0.2,1.3
		c0.1,0.5,0.1,1,0.2,1.4c0.1,0.5,0.1,0.9,0.1,1.1V92.1z"/>
	<path fill="#231f20" d="M105.7,63.1c0.1,0,0.3,0,0.5,0c0.2,0,0.4,0,0.5,0h0.4l0.1,0.5c0,0.2,0.1,0.6,0.1,1.3
		c0.1,0.7,0.1,1.6,0.2,2.5c0,1.2,0,2.1,0.1,2.6c0,0.6,0.1,0.9,0.2,0.9c0,0,0,1.7,0.1,5.1c0,3.4,0.1,7.1,0.1,11.1c0,4,0,7.8,0,11.2
		c0,3.4,0,5.2-0.1,5.4c0,0.1-0.1,0.2-0.4,0.4c-0.2,0.1-0.5,0.2-0.7,0.3c-0.2,0.1-0.4,0.2-0.7,0.5c-0.2,0.3-0.2,0.4,0,0.4
		c0,0,0.1,0,0.2,0.1c0.1,0.1,0.5,0.2,1.1,0.2c0.6,0,1.4,0,2.4,0c0.5,0,1-0.1,1.5-0.1c0.5-0.1,1-0.1,1.3-0.1c0.2,0,0.6,0,1.1,0
		c0-0.1,0.1-0.2,0.3-0.2c0.3-0.1,0.5-0.2,0.6-0.5c0,0,0-0.1,0-0.3c0,0-0.1-0.1-0.4-0.1c-0.3,0-0.6,0-1,0c-0.4,0-0.8,0-1.4,0
		c0-1.3-0.1-2.5-0.1-3.4c0-1,0-2-0.1-3c0-1,0-1.9,0-2.7c0-0.6,0-1.2-0.1-1.9c0-0.7-0.1-1.2-0.1-1.5c-0.1-0.4-0.1-1.1-0.1-2
		s0-1.8,0.1-2.7c0-0.9,0-1.8,0-2.9c0-1.1,0-2.2-0.1-3.1c0-1-0.1-1.8-0.1-2.5c0-0.7,0-1.1,0-1.1c-0.1,0-0.1-0.3-0.2-0.7
		c-0.1-0.4-0.1-1-0.2-1.7c-0.1-0.7-0.1-1.5-0.1-2.4c0-0.9,0-1.8,0-2.8c0-0.9,0-1.7-0.1-2.3c-0.1-0.7-0.1-1-0.1-1
		c-0.1-0.6-0.1-1.1-0.1-1.6v-1.6l0.4-0.1c0.2-0.1,0.4-0.1,0.6-0.1c0.1,0,0.1-0.1,0.1-0.1c0,0,0.1-0.1,0.2-0.1
		c0.1-0.1,0.3-0.1,0.4-0.2c0.7-0.1,1.1-0.2,1.3-0.4c0,0,0.1-0.1,0.3-0.2c0.3-0.2,0.2-0.4-0.2-0.4c-0.3,0-0.5,0-0.5-0.1
		c-0.1,0.1-0.1,0.2-0.3,0.2c-0.1,0-0.2,0-0.2-0.1c0-0.1-0.2-0.2-0.5-0.2c-0.4,0-0.5,0.1-0.6,0.1c0,0.1-0.5,0.1-1.4,0.2
		c-0.9,0.1-2,0.2-3.3,0.2l-1.1,0.1v0.1c0,0.1,0,0.1-0.1,0.2c-0.1,0.1-0.1,0.2-0.2,0.2c-0.1,0.1-0.1,0.1-0.2,0.2
		c-0.1,0.1-0.1,0.1-0.1,0.1l0.1,0.2L105.7,63.1z"/>
	<path fill="#231f20" d="M119.8,66.5c0.1-0.1,0.4-0.2,0.7-0.3c0.4-0.1,0.7-0.1,0.9-0.1c0.1,0,0.1,0.2,0.2,0.4c0,0.2,0.1,0.7,0.2,1.4
		s0.1,1.6,0.2,2.8s0.1,2.8,0.2,4.7c0,4.1,0.1,6.1,0.2,6.2c0.1,0,0,0-0.1,0.2c0.1,0.1,0.1,0.7,0.2,1.9c0.1,1.2,0.1,3.4,0.1,6.5
		c0,1.1,0,2.3,0.1,3.5c0,1.2,0.1,2.4,0.1,3.5c0,1.1,0,2.1,0.1,3.1c0,0.9,0,1.7,0,2.2c0.1,1.5,0.1,2.6,0,3.2c0,0.6,0,0.9,0,1
		c-0.2,0.1-0.5,0.3-0.9,0.4c-0.4,0.1-0.6,0.2-0.8,0.3c-0.2,0.1-0.2,0.3-0.1,0.4c0.1,0,0.5,0,1.2,0c0.7,0,1.6,0,2.5,0
		c0.9,0,1.8,0,2.6-0.1c0.8,0,1.3-0.1,1.4-0.1c0.3-0.1,0.5-0.2,0.6-0.3c0-0.1,0-0.2,0-0.3c0-0.1-0.1-0.2-0.2-0.3
		c-0.1-0.1-0.2-0.1-0.4-0.1s-0.2,0-0.4-0.1c-0.1-0.1-0.2-0.1-0.2-0.2c-0.1-0.1-0.2-0.2-0.2-0.2s-0.2,0-0.3,0c-0.1,0-0.2,0-0.3,0
		l-0.1-0.1v-3.7c0-1,0-2.2-0.1-3.6c-0.1-0.1-0.2-0.8-0.3-2.1c-0.1-1.3-0.1-2.8-0.2-4.4c0-1.6,0-3.1,0-4.5c0-1.4,0.1-2.1,0.2-2.3
		c0.1-0.1,0.3-0.2,0.7-0.3c0.4-0.2,0.8-0.2,1.2-0.2c0.3,0.1,0.5,0.2,0.6,0.3c0.1,0.1,0.2,0.1,0.3,0.2c0.1,0.1,0.2,0.2,0.3,0.2
		c0.1,0.1,0.2,0.2,0.4,0.3c0.2,0.2,0.4,0.3,0.6,0.5c0.2,0.2,0.4,0.3,0.5,0.5c0.2,0.1,0.2,0.2,0.2,0.2c-0.1,0.1,0,0.1,0,0.2
		c0.1,0.1,0.2,0.1,0.2,0.2c0.3,0.2,0.4,0.4,0.4,0.5c0,0.1,0.1,0.3,0.2,0.4c0.1,0.1,0.2,0.2,0.3,0.4c0.1,0.2,0.3,0.4,0.4,0.6
		c0.1,0.2,0.2,0.4,0.3,0.6s0.2,0.3,0.3,0.4c0.1,0.5,0.3,0.8,0.4,1.1c0.1,0.3,0.2,0.5,0.3,0.8c0.1,0.2,0.1,0.4,0.1,0.5
		c0,0.1,0,0.2,0,0.2c0.1,0,0.4,1,0.8,2.9c0,0.5,0.1,0.8,0.2,0.8c0,0.1,0,0.3,0.1,0.7c0.1,0.4,0.2,0.9,0.3,1.4
		c0.1,0.6,0.2,1.3,0.4,2.1c0.1,0.1,0.2,0.2,0.3,0.5s0.2,0.5,0.3,0.8c0.1,0.3,0.2,0.5,0.3,0.8c0.1,0.2,0.2,0.4,0.2,0.4
		c0.2,0.4,0.4,0.8,0.4,1c0.6,1.2,1.2,2,1.9,2.3c0.2,0.1,0.4,0.2,0.4,0.2c0,0.1,0.2,0.2,0.6,0.3c0.4,0.2,0.7,0.2,1.1,0.2
		c0.5,0.1,1,0,1.6-0.1c0.6-0.1,1-0.3,1.1-0.5c0.1-0.1,0.3-0.1,0.4-0.1c0.1-0.1,0.4-0.3,0.8-0.8c0.4-0.5,0.7-0.9,0.8-1.2
		c0.1-0.4,0.3-0.7,0.4-0.8c0.1,0,0.1-0.5,0.1-1.3l0.1-1.2l-0.7-0.2c-0.5-0.1-0.8-0.1-1,0c-0.2,0.1-0.2,0.3-0.2,0.6
		c0,0.2,0,0.5,0,0.8c0,0.3,0,0.6-0.1,0.9c0,0.3-0.1,0.6-0.1,0.8c-0.1,0.2-0.1,0.4-0.2,0.4c-0.1,0.1-0.2,0.3-0.3,0.4
		c0,0.1,0,0.1-0.1,0.3c-0.1,0.1-0.2,0.2-0.3,0.3c-0.5,0.4-1,0.7-1.6,0.7c-0.6,0-1.1-0.2-1.6-0.7c-0.4-0.3-0.7-0.5-0.7-0.6
		c0.1,0,0.1,0,0-0.1c-0.1-0.1-0.1-0.1-0.2-0.2c-0.1-0.1-0.1-0.2-0.2-0.4c-0.1-0.2-0.2-0.5-0.3-0.8c-0.1-0.5-0.3-0.9-0.4-1
		c0,0-0.1-0.2-0.2-0.6c-0.1-0.4-0.2-0.9-0.2-1.4c-0.1-0.6-0.1-1.1-0.2-1.6c-0.1-0.5-0.1-0.9-0.1-1c0-0.1-0.1-0.1-0.2-0.2
		c-0.1,0-0.1-0.2-0.2-0.5c-0.1-0.3-0.1-0.8-0.1-1.2c-0.1-0.5-0.1-1.1-0.2-1.6c-0.1-0.6-0.2-1.1-0.2-1.6c-0.1-0.5-0.1-0.9-0.2-1.2
		c-0.1-0.3-0.1-0.5-0.1-0.5c-0.1-0.1-0.2-0.2-0.2-0.4c-0.1-0.6-0.3-1.1-0.5-1.6c-0.2-0.5-0.3-0.7-0.4-0.7c0,0-0.1-0.2-0.2-0.4
		c-0.1-0.2-0.2-0.4-0.3-0.6c-0.1-0.2-0.2-0.3-0.3-0.4c-0.3-0.2-0.5-0.5-0.6-0.8c-0.1-0.1-0.3-0.3-0.6-0.5c-0.3-0.2-0.6-0.4-0.8-0.5
		c-0.1,0-0.2-0.1-0.3-0.3c-0.4-0.1-0.6-0.2-0.8-0.3c-0.5-0.1-0.8-0.2-0.9-0.4c-0.2-0.2-0.4-0.3-0.6-0.3l-0.6-0.3l0.2-0.1
		c0-0.1,0-0.1,0.1-0.2c0.1,0,0.1,0,0.2,0c0.1,0,0.1-0.1,0.2-0.2c0-0.1,0.2-0.3,0.8-0.4c0.4-0.2,0.6-0.4,0.6-0.4c0-0.1,0.4-0.2,1-0.4
		c0.2-0.1,0.4-0.2,0.5-0.3c0.2-0.1,0.3-0.2,0.3-0.2c0-0.1,0.1-0.2,0.2-0.3c0.1,0.1,0.2,0,0.3-0.1s0.3-0.2,0.4-0.3
		c0.1-0.1,0.3-0.2,0.4-0.4c0.1-0.1,0.2-0.2,0.3-0.2c0.1-0.1,0.3-0.4,0.6-0.7c0.3-0.3,0.5-0.6,0.6-0.9c0.2-0.3,0.3-0.5,0.3-0.6
		c0.1,0,0.2-0.2,0.3-0.6c0.1-0.4,0.2-0.8,0.3-1.4c0.1-0.5,0.2-1,0.2-1.6c0.1-0.5,0.1-1,0.1-1.3c0-0.4,0.1-0.7,0.3-0.7
		c0-0.8,0-1.6,0-2.4c0-0.7,0-1.4,0-2.1c-0.2,0-0.3-0.3-0.3-0.9c0-0.2,0-0.6-0.1-1c-0.1-0.4-0.1-0.8-0.2-1.2s-0.2-0.7-0.2-1.1
		s-0.2-0.5-0.2-0.7c-0.1,0-0.1-0.1-0.2-0.2c-0.1-0.1-0.1-0.2-0.2-0.4c-0.1-0.1-0.2-0.3-0.3-0.4c-0.1-0.2-0.3-0.3-0.4-0.4
		c-0.2-0.1-0.4-0.3-0.5-0.4c-0.1-0.1-0.4-0.3-0.9-0.4c-0.5-0.2-0.9-0.2-1.4-0.2c-0.3-0.1-0.5-0.1-0.7-0.1c-0.2,0-0.2-0.1-0.2-0.1
		c0,0-0.1,0-0.3,0c-0.1,0-0.2,0-0.2,0c0,0.1-0.1,0.2-0.4,0.2c-0.1,0-0.4,0-0.7,0.1c-0.3,0.1-0.6,0.1-0.9,0.2
		c-0.3,0.1-0.6,0.1-0.8,0.2c-0.2,0.1-0.4,0.1-0.4,0.1c0,0-0.2,0.1-0.4,0.2c-0.2,0.1-0.5,0.2-0.8,0.3c-0.3,0.1-0.6,0.2-0.8,0.2
		c-0.2,0.1-0.4,0.1-0.5,0.1c-0.1,0-0.2,0.1-0.2,0.1c0,0.1-0.1,0.1-0.4,0.2c-0.3,0.1-0.6,0.1-0.9,0.2c-0.3,0.1-0.6,0.2-0.8,0.3
		c-0.3,0.1-0.4,0.2-0.4,0.2c0,0-0.1,0.1-0.4,0.1c-0.4,0.1-0.9,0.2-1.3,0.4c-0.5,0.2-0.8,0.3-0.8,0.4c-0.1,0.1-0.2,0.1-0.4,0.2
		s-0.4,0.1-0.6,0.2c-0.5,0.2-0.8,0.4-1,0.6c-0.2,0.2-0.3,0.4-0.2,0.6C119.1,66.7,119.4,66.7,119.8,66.5z M126.4,64.2
		c0.3-0.1,0.4-0.2,0.4-0.4c1-0.2,2-0.4,3.1-0.5c0.3,0,0.7,0,1.2-0.1c0.1-0.2,0.3-0.3,0.7-0.2c0.3,0,0.6,0.2,0.9,0.3
		c0.2,0.2,0.4,0.5,0.5,0.8c0.2,0.3,0.3,0.6,0.3,0.8c0,0.1,0.1,0.2,0.3,0.3c0,0,0.1,0.3,0.1,0.8c0.1,0.5,0.1,1.1,0.2,1.8
		c0.1,0.7,0.1,1.3,0.2,1.9c0.1,0.6,0.1,1,0.1,1.3c0,0.1,0,0.2,0.1,0.3c0.1,0.1,0.1,0.2,0.2,0.2c0,0,0,0.3,0.1,0.9c0,0.6,0,1.2,0,2
		c0,0.7,0,1.4,0,2c0,0.6,0,0.9-0.1,0.9c-0.2,0.1-0.3,0.3-0.3,0.5c-0.1,0.5-0.3,1-0.4,1.5c-0.2,0.5-0.3,0.8-0.4,0.9
		c-0.1,0.1-0.1,0.3-0.1,0.4c0,0.1-0.1,0.2-0.2,0.4c-0.1,0.2-0.3,0.4-0.5,0.5c-0.2,0.2-0.4,0.3-0.5,0.5c-0.2,0.1-0.3,0.2-0.4,0.2
		c-0.1,0-0.2,0.1-0.3,0.3c-0.2,0.2-0.4,0.4-0.6,0.5c-0.1,0.1-0.2,0.1-0.3,0.2c-0.1,0.1-0.2,0.1-0.3,0.2c-0.1,0.1-0.2,0.1-0.4,0.2
		c-0.2,0.1-0.4,0.2-0.6,0.2c-0.5,0.1-0.8,0.3-0.9,0.4c-0.4,0.1-0.6,0.2-0.8,0.2l-0.8,0.1v-1.2c0-0.3,0-0.9,0-1.6
		c0-0.8,0-1.5-0.1-2.4c-0.1-0.8-0.1-2-0.2-3.7s-0.1-3.3-0.1-4.8c-0.1-2.2-0.1-3.7-0.1-4.5c0-0.8-0.1-1.3-0.1-1.3
		c-0.1-0.1-0.2-0.1-0.2-0.2C126,64.4,126.1,64.3,126.4,64.2z"/>
	<path fill="#231f20" d="M62.4,130.9c-0.1-0.1-0.3-0.1-0.5-0.1c-0.1,0.1-0.3,0.2-0.5,0.2c-0.5,0-0.9-0.2-1.3-0.5
		c-0.1-0.1-0.3-0.3-0.4-0.5c-0.1-0.2-0.2-0.5-0.3-0.8c-0.1-0.3-0.1-0.9-0.1-1.8l0.1-4.2v-0.1c0-0.7,0.1-1.5,0.3-2.6
		c0.1-0.6,0.3-1,0.5-1.4c0.2-0.4,0.5-0.6,0.8-0.6h1c0.1,0,0.2-0.1,0.3-0.2c0.1-0.1,0.1-0.2,0.1-0.4c0-0.1-0.1-0.3-0.2-0.4
		c-0.1-0.1-0.3-0.2-0.5-0.2c-0.9,0-1.7,0.3-2.4,0.8c-0.5,0.4-0.8,1.1-1.1,2.1c-0.2,0.8-0.3,2.3-0.3,4.4v0.5l0,1.3
		c0,2.8,0.5,4.5,1.5,5.1c0.2,0.1,0.4,0.2,0.8,0.3c0.4,0.1,0.7,0.1,1,0.1c0.8,0,1.2-0.3,1.2-0.9C62.6,131.1,62.5,131,62.4,130.9z"/>
	<path fill="#231f20" d="M70.6,123.4c0-1.4-0.2-2.6-0.6-3.6c-0.6-1.7-1.8-2.5-3.5-2.5c-0.2,0-0.4,0.1-0.6,0.3
		c-0.2,0.2-0.4,0.7-0.6,1.5c-0.3,1-0.4,2.6-0.4,4.8v0.4c0,0,0,0,0,0.1l0,0.8c0,0.9,0.1,2,0.2,3.2c0.1,0.8,0.3,1.7,0.7,2.5
		c0.4,0.9,1,1.3,1.9,1.3c1.9,0,2.9-2.1,2.9-6.2l0-2.5V123.4z M69.3,127.8c0,0.4-0.1,0.9-0.2,1.2c-0.1,0.4-0.2,0.8-0.3,1.1
		c-0.1,0.4-0.3,0.6-0.5,0.9c-0.2,0.2-0.5,0.3-0.7,0.3c-0.3-0.2-0.7-0.7-1-1.6c-0.3-1.6-0.5-3.4-0.5-5.5l0.1-2l0-1.3
		c0-0.7,0.1-1.3,0.2-1.7c0.2-0.6,0.5-0.8,1-0.8c0.5,0,0.9,0.2,1.3,0.6c0.3,0.4,0.5,0.9,0.5,1.4v0.4c0,0.6,0,1.4,0.1,2.5
		c0.1,1.1,0.1,2,0.1,2.5C69.4,126.4,69.4,127,69.3,127.8z"/>
	<path fill="#231f20" d="M76.2,117.5c-0.4-0.1-0.7-0.1-0.9-0.1c-0.2,0-0.5,0-0.7,0c-0.2,0-0.4,0.1-0.6,0.2c-0.2,0.1-0.3,0.3-0.3,0.5
		c0,0.9,0,1.9-0.1,2.9v0.5c0,0.7-0.1,2.3-0.2,4.7c-0.1,2.4-0.2,4.2-0.3,5.5c0.3,0.2,0.6,0.3,0.8,0.3c0.4,0,0.6-0.3,0.6-1v-6.1
		c0.3,0.1,0.5,0.1,0.8,0.1c0.3,0,0.5-0.1,0.6-0.2c0.2-0.1,0.2-0.3,0.2-0.5c0-0.4-0.4-0.6-1.1-0.6l-0.4,0v-0.6L75,119v-0.3h0.3
		c0.5,0,0.9,0.1,1.1,0.2c0.7,0,1.1-0.2,1.1-0.6C77.5,117.9,77.1,117.7,76.2,117.5z"/>
	<path fill="#231f20" d="M82.7,117.5c-0.4-0.1-0.7-0.1-0.9-0.1c-0.2,0-0.5,0-0.7,0c-0.2,0-0.4,0.1-0.6,0.2c-0.2,0.1-0.3,0.3-0.3,0.5
		c0,0.9,0,1.9-0.1,2.9v0.5c0,0.7-0.1,2.3-0.2,4.7c-0.1,2.4-0.2,4.2-0.3,5.5c0.3,0.2,0.6,0.3,0.8,0.3c0.4,0,0.6-0.3,0.6-1v-6.1
		c0.3,0.1,0.5,0.1,0.8,0.1c0.3,0,0.5-0.1,0.6-0.2c0.2-0.1,0.2-0.3,0.2-0.5c0-0.4-0.4-0.6-1.1-0.6l-0.4,0v-0.6l0.2-4.3v-0.3h0.3
		c0.5,0,0.9,0.1,1.1,0.2c0.7,0,1.1-0.2,1.1-0.6C83.9,117.9,83.5,117.7,82.7,117.5z"/>
	<path fill="#231f20" d="M89.2,131l-1.6,0.1c0,0,0-0.4,0-1.2l0.1-3.9c0-0.5,0-1.1-0.1-1.6h0.6c0.2,0,0.4,0,0.6,0
		c0.2,0,0.4-0.1,0.5-0.2c0.1-0.1,0.2-0.3,0.2-0.4c0-0.4-0.4-0.6-1.1-0.6l-0.8,0c0-0.2-0.1-0.3-0.1-0.3l0.1-3.1c0-0.3,0-0.6,0-0.9
		c0.4,0,1,0.2,1.7,0.4c0.4-0.2,0.6-0.4,0.6-0.7c0-0.3-0.3-0.5-1-0.7c-0.7-0.2-1.2-0.3-1.6-0.3c-0.6,0-0.9,0.5-0.9,1.5l0.1,1.8
		l-0.1,6.3l0.1,3.7v0.6c0,0.2,0.1,0.3,0.2,0.5c0.2,0.1,0.3,0.2,0.5,0.2h1.9c0.2,0,0.5,0,0.7-0.1c0.2-0.1,0.3-0.3,0.3-0.5
		C90,131.2,89.8,131,89.2,131z"/>
	<path fill="#231f20" d="M95.4,131l-1.6,0.1c0,0,0-0.4,0-1.2l0.1-3.9c0-0.5,0-1.1-0.1-1.6h0.6c0.2,0,0.4,0,0.6,0
		c0.2,0,0.4-0.1,0.5-0.2c0.1-0.1,0.2-0.3,0.2-0.4c0-0.4-0.4-0.6-1.1-0.6l-0.8,0c0-0.2-0.1-0.3-0.1-0.3l0.1-3.1c0-0.3,0-0.6,0-0.9
		c0.4,0,1,0.2,1.7,0.4c0.4-0.2,0.6-0.4,0.6-0.7c0-0.3-0.3-0.5-1-0.7c-0.7-0.2-1.2-0.3-1.6-0.3c-0.6,0-0.9,0.5-0.9,1.5l0.1,1.8
		l-0.1,6.3l0.1,3.7v0.6c0,0.2,0.1,0.3,0.2,0.5c0.2,0.1,0.3,0.2,0.5,0.2h1.9c0.2,0,0.5,0,0.7-0.1c0.2-0.1,0.3-0.3,0.3-0.5
		C96.2,131.2,95.9,131,95.4,131z"/>
	<path fill="#231f20" d="M103.7,131.1c0.5,0.4,1.1,0.6,1.8,0.6c0.7,0,1.5-0.3,2.3-0.8c0.8,0.5,1.5,0.8,2.1,0.8c0.3,0,0.6,0,0.8-0.1
		c0.2-0.1,0.3-0.3,0.3-0.6l-0.4-0.3l-0.9,0.1c-0.5,0-1-0.2-1.4-0.7c0.6-0.8,0.9-2.3,0.9-4.6h0.5l0.1,0c0.8,0,1.1-0.2,1.1-0.6
		c0-0.3-0.2-0.5-0.6-0.6c-0.5,0.2-1.4,0.3-2.5,0.3v0.6c0,0,0,0.1,0,0.1c0,0.1,0,0.1,0.1,0.1c0,0,0,0,0.1,0.1c0,0,0.1,0.1,0.2,0.1
		v0.1c0,1.5-0.2,2.8-0.7,3.8c-0.4-0.4-0.8-1.4-1.4-3c-0.5-1.6-0.8-2.8-0.8-3.4c0-0.2,0.1-0.4,0.4-0.7c0.1-0.1,0.2-0.3,0.2-0.3
		c0.6-0.7,1-1.4,1.3-2.1c0.3-0.7,0.4-1.5,0.4-2.3c0-0.5-0.2-1-0.7-1.4c-0.5-0.4-1-0.6-1.4-0.6s-0.8,0.1-1.1,0.4
		c-0.3,0.3-0.4,0.7-0.4,1.2v1.8l0.1,3c-0.3,0.6-0.6,1.2-0.9,1.7c-0.2,0.4-0.3,0.7-0.4,0.9c-0.1,0.2-0.1,0.4-0.3,0.8
		c-0.1,0.4-0.2,0.7-0.2,0.9c0,0.2-0.1,0.5-0.1,0.9c0,0.3-0.1,0.8-0.1,1.2c0,0.5,0.1,1,0.4,1.5C102.9,130.3,103.2,130.7,103.7,131.1z
		 M105,117c0.2-0.4,0.4-0.5,0.6-0.5c0.2,0,0.5,0.2,0.7,0.6c0.2,0.4,0.4,0.8,0.4,1.1c0,0.3-0.2,0.8-0.5,1.4c-0.3,0.6-0.7,1.2-1.1,1.6
		v-0.2l0-2.9V117z M104.4,123.5c0.4,2.5,1.3,4.8,2.7,6.7c-0.1,0.1-0.4,0.3-0.7,0.4c-0.3,0.1-0.6,0.2-0.9,0.2c-0.8,0-1.3-0.3-1.7-1
		c-0.3-0.6-0.5-1.3-0.5-2C103.3,126.1,103.6,124.7,104.4,123.5z"/>
	<path fill="#231f20" d="M118.5,131.1v-6.1c0.3,0.1,0.5,0.1,0.8,0.1c0.3,0,0.5-0.1,0.6-0.2c0.2-0.1,0.2-0.3,0.2-0.5
		c0-0.4-0.4-0.6-1.1-0.6l-0.4,0v-0.6l0.2-4.3v-0.3h0.3c0.5,0,0.9,0.1,1.1,0.2c0.7,0,1.1-0.2,1.1-0.6c0-0.4-0.4-0.6-1.2-0.8
		c-0.4-0.1-0.7-0.1-0.9-0.1c-0.2,0-0.5,0-0.7,0c-0.2,0-0.4,0.1-0.6,0.2c-0.2,0.1-0.3,0.3-0.3,0.5c0,0.9,0,1.9-0.1,2.9v0.5
		c0,0.7-0.1,2.3-0.2,4.7c-0.1,2.4-0.2,4.2-0.3,5.5c0.3,0.2,0.6,0.3,0.8,0.3C118.3,132,118.5,131.7,118.5,131.1z"/>
	<path fill="#231f20" d="M129.2,123.4c0-1.4-0.2-2.6-0.6-3.6c-0.6-1.7-1.8-2.5-3.5-2.5c-0.2,0-0.4,0.1-0.6,0.3
		c-0.2,0.2-0.4,0.7-0.6,1.5c-0.3,1-0.4,2.6-0.4,4.8v0.4c0,0,0,0,0,0.1l0,0.8c0,0.9,0.1,2,0.2,3.2c0.1,0.8,0.3,1.7,0.7,2.5
		c0.4,0.9,1,1.3,1.9,1.3c1.9,0,2.9-2.1,2.9-6.2l0-2.5V123.4z M128,127.8c0,0.4-0.1,0.9-0.2,1.2c-0.1,0.4-0.2,0.8-0.3,1.1
		c-0.1,0.4-0.3,0.6-0.5,0.9s-0.5,0.3-0.7,0.3c-0.3-0.2-0.7-0.7-1-1.6c-0.3-1.6-0.5-3.4-0.5-5.5l0.1-2l0-1.3c0-0.7,0.1-1.3,0.2-1.7
		c0.2-0.6,0.5-0.8,1-0.8c0.5,0,0.9,0.2,1.3,0.6c0.3,0.4,0.5,0.9,0.5,1.4v0.4c0,0.6,0,1.4,0.1,2.5c0.1,1.1,0.1,2,0.1,2.5
		C128.1,126.4,128.1,127,128,127.8z"/>
	<path fill="#231f20" d="M137.5,123.4c0-1.4-0.2-2.6-0.6-3.6c-0.6-1.7-1.8-2.5-3.5-2.5c-0.2,0-0.4,0.1-0.6,0.3
		c-0.2,0.2-0.4,0.7-0.6,1.5c-0.3,1-0.4,2.6-0.4,4.8v0.4c0,0,0,0,0,0.1l0,0.8c0,0.9,0.1,2,0.2,3.2c0.1,0.8,0.3,1.7,0.7,2.5
		c0.4,0.9,1,1.3,1.9,1.3c1.9,0,2.9-2.1,2.9-6.2l0-2.5V123.4z M136.3,127.8c0,0.4-0.1,0.9-0.2,1.2c-0.1,0.4-0.2,0.8-0.3,1.1
		c-0.1,0.4-0.3,0.6-0.5,0.9c-0.2,0.2-0.5,0.3-0.7,0.3c-0.3-0.2-0.7-0.7-1-1.6c-0.3-1.6-0.5-3.4-0.5-5.5l0.1-2l0-1.3
		c0-0.7,0.1-1.3,0.2-1.7c0.2-0.6,0.5-0.8,1-0.8c0.5,0,0.9,0.2,1.3,0.6c0.3,0.4,0.5,0.9,0.5,1.4v0.4c0,0.6,0,1.4,0.1,2.5
		c0.1,1.1,0.1,2,0.1,2.5C136.4,126.4,136.3,127,136.3,127.8z"/>
	<path fill="#231f20" d="M140.9,117.5c-0.2,0-0.4,0.1-0.5,0.2c-0.2,0.1-0.2,0.3-0.2,0.6c0,0.3,0,0.9,0.1,1.8c0.1,1,0.1,1.7,0.1,2.1
		l-0.1,6.8c0,1.9,0.2,2.8,0.6,2.8h1.6c0.7-0.4,1.3-0.8,1.8-1.4c0.2-0.3,0.4-0.5,0.5-0.9c0.1-0.3,0.3-0.7,0.4-1.2
		c0.1-0.5,0.2-1.5,0.2-2.9v-1.2l0-1.1c0-1.1-0.3-2.2-0.8-3.2C143.6,118.4,142.4,117.5,140.9,117.5z M144.1,127.1
		c-0.3,2.5-1,3.8-2.3,3.8v-0.5c0-1.1-0.1-2.7-0.2-4.8c-0.1-2.1-0.2-3.7-0.2-4.7c0-1,0.1-1.8,0.2-2.4c1.7,0.2,2.5,2.5,2.5,6.8
		C144.2,125.9,144.2,126.5,144.1,127.1z"/>
</g>
</svg>
